<?xml version="1.0" encoding="UTF-8" standalone="no"?>
<!-- Created with Inkscape (http://www.inkscape.org/) -->

<svg
   xmlns:dc="http://purl.org/dc/elements/1.1/"
   xmlns:cc="http://creativecommons.org/ns#"
   xmlns:rdf="http://www.w3.org/1999/02/22-rdf-syntax-ns#"
   xmlns:svg="http://www.w3.org/2000/svg"
   xmlns="http://www.w3.org/2000/svg"
   xmlns:sodipodi="http://sodipodi.sourceforge.net/DTD/sodipodi-0.dtd"
   xmlns:inkscape="http://www.inkscape.org/namespaces/inkscape"
   width="4in"
   height="4in"
   viewBox="0 0 101.6 101.6"
   version="1.1"
   id="svg8"
   inkscape:version="0.92.4 (5da689c313, 2019-01-14)"
   sodipodi:docname="badcustomerservice.svg">
  <defs
     id="defs2" />
  <sodipodi:namedview
     id="base"
     pagecolor="#ffffff"
     bordercolor="#666666"
     borderopacity="1.0"
     inkscape:pageopacity="0.0"
     inkscape:pageshadow="2"
     inkscape:zoom="1.4"
     inkscape:cx="59.375823"
     inkscape:cy="143.70172"
     inkscape:document-units="mm"
     inkscape:current-layer="layer1"
     showgrid="false"
     units="in"
     inkscape:object-nodes="false"
     inkscape:snap-nodes="false"
     inkscape:snap-others="false"
     inkscape:window-width="1920"
     inkscape:window-height="1056"
     inkscape:window-x="-8"
     inkscape:window-y="-8"
     inkscape:window-maximized="1" />
  <metadata
     id="metadata5">
    <rdf:RDF>
      <cc:Work
         rdf:about="">
        <dc:format>image/svg+xml</dc:format>
        <dc:type
           rdf:resource="http://purl.org/dc/dcmitype/StillImage" />
        <dc:title></dc:title>
      </cc:Work>
    </rdf:RDF>
  </metadata>
  <g
     inkscape:label="Layer 1"
     inkscape:groupmode="layer"
     id="layer1"
     transform="translate(0,-195.4)">
    <path
       style="fill:#b039f1;fill-opacity:1;stroke:none;stroke-width:0.24234873px;stroke-linecap:butt;stroke-linejoin:miter;stroke-opacity:1"
       d="m 4.1486147,242.06874 c 0.2163954,0.65775 21.6601603,46.4507 19.9260923,48.93466 -1.734071,2.48394 76.811103,-23.26579 75.83089,-24.58342 -0.98019,-1.31762 -17.8645,-58.17788 -20.329966,-57.6401 -2.465471,0.53776 -75.4270163,33.28886 -75.4270163,33.28886 z"
       id="path2239"
       inkscape:connector-curvature="0" />
    <path
       style="display:inline;fill:#ffffff;stroke:#000000;stroke-width:1.01199996;stroke-linecap:butt;stroke-linejoin:miter;stroke-miterlimit:4;stroke-dasharray:none;stroke-opacity:1;fill-opacity:1"
       d="m 88.029382,287.40297 c 1.984784,-16.35493 3.111554,-21.43097 2.260232,-20.69546 -0.639549,0.55255 -52.919365,0 -53.053001,0.93544 -0.133635,0.93544 1.469983,21.64883 1.469983,21.64883 z"
       id="path2146"
       inkscape:connector-curvature="0"
       sodipodi:nodetypes="csccc" />
    <path
       style="fill:#ffffff;stroke:#000000;stroke-width:1.01199996;stroke-linecap:butt;stroke-linejoin:miter;stroke-miterlimit:4;stroke-dasharray:none;stroke-opacity:1;fill-opacity:1"
       d="m 40.176579,273.12198 c -7.082642,-1.73726 -24.989701,-9.2208 -25.390606,-23.51972 -0.400904,-14.29892 5.87993,-24.32153 4.810852,-24.85607 -1.069079,-0.53454 -7.216277,-1.06908 -7.750816,-0.13363 -0.534539,0.93544 -9.7553385,27.26149 0.935443,43.03039 10.69078,15.7689 26.326049,13.76438 26.326049,13.76438 z"
       id="path2148"
       inkscape:connector-curvature="0"
       sodipodi:nodetypes="csscscc" />
    <path
       style="fill:#ffffff;stroke:#000000;stroke-width:1.01199996;stroke-linecap:butt;stroke-linejoin:miter;stroke-miterlimit:4;stroke-dasharray:none;stroke-opacity:1;fill-opacity:1"
       d="m 12.915087,224.61256 c -3.8754094,-3.60814 -10.2027602,-16.68108 1.336347,-22.45064 2.233353,-1.11668 -0.08915,9.71028 -0.199217,12.28588 -0.166549,3.89716 7.232122,3.44966 9.152746,1.47849 5.078121,-5.21175 2.167994,-14.04648 6.013564,-13.49711 2.80633,0.40091 3.875408,11.49259 3.073601,13.89802 -1.419926,4.25979 -7.750818,10.55715 -19.377041,8.28536 z"
       id="path2150"
       inkscape:connector-curvature="0"
       sodipodi:nodetypes="csssssc" />
    <path
       style="fill:#ffffff;stroke:#000000;stroke-width:1.01199996;stroke-linecap:butt;stroke-linejoin:miter;stroke-miterlimit:4;stroke-dasharray:none;stroke-opacity:1;fill-opacity:1"
       d="m 31.089414,230.22522 c 0,10.42351 -1.469983,17.90706 1.737251,20.44612 3.207235,2.53905 55.592062,2.67269 56.527507,0.66817 0.935442,-2.00452 0.668173,-21.78247 0,-23.25245 -0.668176,-1.46998 -60.670183,-2.93996 -58.264758,2.13816 z"
       id="path2152"
       inkscape:connector-curvature="0"
       sodipodi:nodetypes="ccccc" />
    <path
       style="fill:#ffffff;stroke:#000000;stroke-width:1.01199996;stroke-linecap:butt;stroke-linejoin:miter;stroke-miterlimit:4;stroke-dasharray:none;stroke-opacity:1;fill-opacity:1"
       d="m 36.301171,218.06445 c 5.612659,2.53906 19.243405,10.02261 19.109769,12.82894 -0.133633,2.80633 -6.548101,3.4745 -10.15624,1.73725 -3.608139,-1.73725 -12.828939,-4.40995 -13.096208,-5.87993 -0.267269,-1.46998 0.668173,-8.81989 4.142679,-8.68626 z"
       id="path2154"
       inkscape:connector-curvature="0"
       sodipodi:nodetypes="ccssc" />
    <path
       style="fill:#ffffff;stroke:#000000;stroke-width:1.01199996;stroke-linecap:butt;stroke-linejoin:miter;stroke-miterlimit:4;stroke-dasharray:none;stroke-opacity:1;fill-opacity:1"
       d="m 68.106244,229.95795 c 6.013563,-7.48355 16.169806,-15.50163 18.441595,-12.42804 2.271792,3.0736 3.875411,7.34991 1.603619,9.62171 -2.271792,2.27179 -18.708867,6.5481 -19.64431,6.28083 -0.935445,-0.26727 -0.400904,-3.4745 -0.400904,-3.4745 z"
       id="path2156"
       inkscape:connector-curvature="0"
       sodipodi:nodetypes="cscsc" />
    <path
       style="fill:none;stroke:#000000;stroke-width:1.01199996;stroke-linecap:butt;stroke-linejoin:miter;stroke-miterlimit:4;stroke-dasharray:none;stroke-opacity:1"
       d="m 48.194663,240.24782 c -0.668174,-7.08264 -10.95805,-8.15172 -11.759859,-0.13363 -0.801809,8.01809 12.428035,5.74629 11.759859,0.13363 z"
       id="path2158"
       inkscape:connector-curvature="0"
       sodipodi:nodetypes="csc" />
    <path
       style="fill:none;stroke:#000000;stroke-width:1.01199996;stroke-linecap:butt;stroke-linejoin:miter;stroke-miterlimit:4;stroke-dasharray:none;stroke-opacity:1"
       d="m 71.848016,240.64873 c -0.400902,-8.15172 13.630745,-10.55715 13.898017,-1.20271 0.267269,9.35443 -14.298919,5.34539 -13.898017,1.20271 z"
       id="path2160"
       inkscape:connector-curvature="0"
       sodipodi:nodetypes="csc" />
    <path
       style="fill:#ffffff;stroke:#000000;stroke-width:1.01199996;stroke-linecap:butt;stroke-linejoin:miter;stroke-miterlimit:4;stroke-dasharray:none;stroke-opacity:1;fill-opacity:1"
       d="m 56.346385,252.94313 c 0.668174,6.1472 1.336347,12.96257 0.935442,13.89801 -0.400904,0.93545 10.824417,2.13816 12.561668,0.53454 1.737252,-1.60362 -0.534537,-15.368 -0.534537,-15.368 z"
       id="path2162"
       inkscape:connector-curvature="0"
       sodipodi:nodetypes="ccscc" />
    <path
       style="fill:none;stroke:#000000;stroke-width:1.01199996;stroke-linecap:butt;stroke-linejoin:miter;stroke-miterlimit:4;stroke-dasharray:none;stroke-opacity:1"
       d="m 58.083637,256.41763 c 7.34991,1.46998 11.358954,1.06908 13.49711,-0.4009"
       id="path2164"
       inkscape:connector-curvature="0"
       sodipodi:nodetypes="cc" />
    <path
       style="fill:none;stroke:#000000;stroke-width:1.01199996;stroke-linecap:butt;stroke-linejoin:miter;stroke-miterlimit:4;stroke-dasharray:none;stroke-opacity:1"
       d="m 58.083637,263.36664 c 2.138156,1.73725 9.888971,4.00904 13.363477,1.06908"
       id="path2166"
       inkscape:connector-curvature="0"
       sodipodi:nodetypes="cc" />
    <path
       style="fill:none;stroke:#000000;stroke-width:1.01199996;stroke-linecap:butt;stroke-linejoin:miter;stroke-miterlimit:4;stroke-dasharray:none;stroke-opacity:1"
       d="m 15.053243,242.38598 c -1.870887,-0.4009 -6.8153734,0.80181 -7.0826434,-1.73725"
       id="path2168"
       inkscape:connector-curvature="0"
       sodipodi:nodetypes="cc" />
    <path
       style="fill:none;stroke:#000000;stroke-width:1.01199996;stroke-linecap:butt;stroke-linejoin:miter;stroke-miterlimit:4;stroke-dasharray:none;stroke-opacity:1"
       d="m 14.785973,252.54222 c -1.069078,3.60814 -6.8153734,2.40543 -7.0826424,1.33635"
       id="path2170"
       inkscape:connector-curvature="0"
       sodipodi:nodetypes="cc" />
    <path
       style="fill:none;stroke:#000000;stroke-width:1.01199996;stroke-linecap:butt;stroke-linejoin:miter;stroke-miterlimit:4;stroke-dasharray:none;stroke-opacity:1"
       d="m 19.596825,261.09485 c -0.801809,4.54358 -8.285355,6.01356 -8.41899,4.14267"
       id="path2172"
       inkscape:connector-curvature="0"
       sodipodi:nodetypes="cc" />
    <path
       style="fill:none;stroke:#000000;stroke-width:1.01199996;stroke-linecap:butt;stroke-linejoin:miter;stroke-miterlimit:4;stroke-dasharray:none;stroke-opacity:1"
       d="m 27.347642,268.17749 c 0.400902,4.00904 -3.87541,10.42351 -6.949009,7.21628"
       id="path2174"
       inkscape:connector-curvature="0"
       sodipodi:nodetypes="cc" />
    <path
       style="fill:#ffca16;fill-opacity:1;stroke:#000000;stroke-width:1.01199996;stroke-linecap:butt;stroke-linejoin:miter;stroke-miterlimit:4;stroke-dasharray:none;stroke-opacity:1"
       d="m 36.948969,241.43455 c -2.372022,-2.86341 -6.899862,-12.09229 -4.915487,-10.01342 1.984375,2.07887 6.898066,5.19717 6.52009,4.63021 -0.377978,-0.56697 -0.566965,-9.5439 -0.0945,-8.50447 0.472472,1.03944 4.891747,7.36955 4.797251,8.22 -0.09449,0.85045 5.313613,-10.01538 4.935637,-8.88145 -0.377975,1.13392 -0.229694,13.32661 -1.228423,14.74107 -1.23229,1.74524 -4.214041,3.65624 -6.406433,2.51416 -0.6341,-0.33032 -2.64907,-1.54836 -3.608135,-2.7061 z"
       id="path2176"
       inkscape:connector-curvature="0"
       sodipodi:nodetypes="asccccssa" />
    <path
       style="fill:#ff2916;fill-opacity:1;stroke:none;stroke-width:0.5;stroke-linecap:butt;stroke-linejoin:miter;stroke-miterlimit:4;stroke-dasharray:none;stroke-opacity:1"
       d="m 40.491333,243.54609 c -4.677217,-6.74855 -4.64381,-6.48128 -3.30746,-5.61265 1.336347,0.86862 2.939964,3.00678 2.739513,1.13589 -0.200453,-1.87088 0.50113,-3.90882 0.233861,-4.37654 -0.267269,-0.46772 4.07586,4.51017 4.276311,3.97564 0.200454,-0.53454 1.870887,-4.47677 1.870887,-4.81086 0,-0.33408 1.202712,7.61719 -0.200453,8.61945 -1.403165,1.00226 -2.071338,2.80633 -5.612659,1.06907 z"
       id="path2193"
       inkscape:connector-curvature="0"
       sodipodi:nodetypes="cccscssc" />
    <path
       style="fill:#e5e570;fill-opacity:1;stroke:none;stroke-width:0.5;stroke-linecap:butt;stroke-linejoin:miter;stroke-miterlimit:4;stroke-dasharray:none;stroke-opacity:1"
       d="m 42.763125,243.88018 c -2.372019,-1.36975 -2.205262,-2.51069 -2.272079,-2.74455 -0.06682,-0.23386 1.971401,-0.0284 2.205261,0.27231 0.23386,0.30068 -0.669159,-2.14656 -0.602341,-2.38042 0.06682,-0.23386 2.139142,1.5452 2.239366,1.77906 0.100226,0.23386 1.037348,-1.77431 1.271208,-1.40681 0.233863,0.36749 0.432635,3.41133 -0.335765,3.81223 -0.7684,0.40091 -1.102486,1.16931 -2.50565,0.66818 z"
       id="path2216"
       inkscape:connector-curvature="0"
       sodipodi:nodetypes="ccsccccc" />
    <path
       style="fill:#ffca16;fill-opacity:1;stroke:#000000;stroke-width:1.01199996;stroke-linecap:butt;stroke-linejoin:miter;stroke-miterlimit:4;stroke-dasharray:none;stroke-opacity:1"
       d="m 72.956205,238.54795 c -0.503714,-3.68401 0.520644,-13.91261 1.109113,-11.09957 0.58847,2.81303 3.116595,8.05485 3.094741,7.3738 -0.02185,-0.68106 4.555019,-8.40591 4.407797,-7.27367 -0.147223,1.13225 0.265973,8.84131 -0.263101,9.51382 -0.529069,0.67252 9.798866,-5.70303 8.8794,-4.93932 -0.919461,0.7637 -7.227962,11.19856 -8.822748,11.87296 -1.967738,0.83211 -5.508966,0.88178 -6.768499,-1.2453 -0.364293,-0.61522 -1.433036,-2.7132 -1.636703,-4.20272 z"
       id="path2176-4"
       inkscape:connector-curvature="0"
       sodipodi:nodetypes="asccccssa" />
    <path
       style="fill:#ff2916;fill-opacity:1;stroke:none;stroke-width:0.5;stroke-linecap:butt;stroke-linejoin:miter;stroke-miterlimit:4;stroke-dasharray:none;stroke-opacity:1"
       d="m 74.850808,242.21092 c -0.411469,-8.2006 -0.524139,-7.95596 0.15257,-6.51289 0.676712,1.44305 0.910472,4.1055 1.727532,2.41056 0.817053,-1.69493 2.488469,-3.05574 2.508277,-3.59407 0.01983,-0.53833 1.081931,5.98195 1.534283,5.63369 0.452362,-0.34825 3.951682,-2.81529 4.127991,-3.09907 0.176304,-0.28378 -2.998225,7.10484 -4.719012,7.21567 -1.720789,0.11084 -3.240405,1.29062 -5.331641,-2.05389 z"
       id="path2193-2"
       inkscape:connector-curvature="0"
       sodipodi:nodetypes="cccscssc" />
    <path
       style="fill:#e5e570;fill-opacity:1;stroke:none;stroke-width:0.5;stroke-linecap:butt;stroke-linejoin:miter;stroke-miterlimit:4;stroke-dasharray:none;stroke-opacity:1"
       d="m 76.604186,243.6936 c -1.291962,-2.41527 -0.548208,-3.2964 -0.481549,-3.5303 0.06666,-0.23391 1.68952,1.01624 1.729469,1.39509 0.03996,0.37882 0.564414,-2.17645 0.744585,-2.33984 0.180173,-0.16338 1.001563,2.44141 0.963279,2.69294 -0.03828,0.25154 1.817494,-0.95968 1.822197,-0.52411 0.0047,0.43557 -1.432778,3.12594 -2.297033,3.06096 -0.864262,-0.0649 -1.553545,0.41142 -2.480948,-0.75474 z"
       id="path2216-9"
       inkscape:connector-curvature="0"
       sodipodi:nodetypes="ccsccccc" />
  </g>
</svg>
