<?xml version="1.0" encoding="UTF-8" standalone="no"?>
<!-- Created with Inkscape (http://www.inkscape.org/) -->

<svg
   xmlns:dc="http://purl.org/dc/elements/1.1/"
   xmlns:cc="http://creativecommons.org/ns#"
   xmlns:rdf="http://www.w3.org/1999/02/22-rdf-syntax-ns#"
   xmlns:svg="http://www.w3.org/2000/svg"
   xmlns="http://www.w3.org/2000/svg"
   xmlns:sodipodi="http://sodipodi.sourceforge.net/DTD/sodipodi-0.dtd"
   xmlns:inkscape="http://www.inkscape.org/namespaces/inkscape"
   width="4in"
   height="4in"
   viewBox="0 0 101.6 101.6"
   version="1.1"
   id="svg4882"
   inkscape:version="0.92.4 (5da689c313, 2019-01-14)"
   sodipodi:docname="badprices.svg">
  <defs
     id="defs4876" />
  <sodipodi:namedview
     id="base"
     pagecolor="#ffffff"
     bordercolor="#666666"
     borderopacity="1.0"
     inkscape:pageopacity="0.0"
     inkscape:pageshadow="2"
     inkscape:zoom="1.979899"
     inkscape:cx="210.43247"
     inkscape:cy="207.09494"
     inkscape:document-units="mm"
     inkscape:current-layer="layer1"
     showgrid="false"
     units="in"
     inkscape:snap-nodes="false"
     inkscape:snap-others="false"
     inkscape:window-width="1920"
     inkscape:window-height="1056"
     inkscape:window-x="-8"
     inkscape:window-y="-8"
     inkscape:window-maximized="1" />
  <metadata
     id="metadata4879">
    <rdf:RDF>
      <cc:Work
         rdf:about="">
        <dc:format>image/svg+xml</dc:format>
        <dc:type
           rdf:resource="http://purl.org/dc/dcmitype/StillImage" />
        <dc:title />
      </cc:Work>
    </rdf:RDF>
  </metadata>
  <g
     inkscape:label="Layer 1"
     inkscape:groupmode="layer"
     id="layer1"
     transform="translate(0,-195.4)">
    <path
       style="fill:#da00e6;fill-opacity:1;stroke:none;stroke-width:0.26458332px;stroke-linecap:butt;stroke-linejoin:miter;stroke-opacity:1"
       d="m 25.949504,267.31265 c 0.06768,-6.90334 1.179918,-12.49309 2.208252,-16.76261 0.49375,-2.04999 2.510556,-3.69279 1.472693,-5.22452 -2.435087,-3.59382 -2.748989,-7.69732 7.228013,-4.73584 2.584132,0.76705 5.598156,-1.48187 9.349127,-1.60902 16.725445,-0.56696 32.222467,1.60639 30.332587,22.67856 -0.336134,3.74789 -0.509058,9.93551 -4.74278,14.96147 -0.850432,1.00957 1.12784,3.56249 0.594337,4.50742 -1.19559,2.1176 -2.453808,2.85833 -4.596076,2.44381 -1.276142,-0.24694 -1.798179,-2.05109 -2.201311,-1.80635 -2.048209,1.24345 -2.831744,1.84189 -5.852109,1.9268 -1.360808,0.0383 0.35332,4.16587 -0.849971,4.53298 -2.133189,0.65081 -4.053507,2.07067 -6.250579,1.10915 -1.831525,-0.80155 -2.057584,-4.68323 -2.661273,-4.55755 -1.975515,0.41127 -3.947298,0.7301 -5.870304,0.97215 -1.396895,0.17582 -1.551587,2.83764 -2.906013,2.88388 -2.59657,0.0887 -2.545884,-0.9555 -5.030074,-1.28857 -1.607205,-0.21549 0.129793,-3.90316 -1.173188,-4.31926 -12.40975,-3.96298 -9.051331,-15.7125 -9.051331,-15.7125 z"
       id="path2024"
       inkscape:connector-curvature="0"
       inkscape:label="fill"
       sodipodi:nodetypes="csssssssssssssssssc" />
    <path
       style="fill:none;fill-opacity:1;stroke:#000000;stroke-width:1.01199996;stroke-linecap:butt;stroke-linejoin:miter;stroke-miterlimit:4;stroke-dasharray:none;stroke-opacity:1"
       d="m 25.791509,267.19945 c -0.133635,-10.82442 0.09044,-33.54774 36.023252,-29.19445 8.94857,1.08413 13.813509,7.24588 14.824393,12.90286 2.707206,15.14974 -2.821367,27.30763 -12.409709,31.25873 -4.264177,1.75715 -37.502494,12.42798 -38.437936,-14.96714 z"
       id="path5678"
       inkscape:connector-curvature="0"
       sodipodi:nodetypes="csssc" />
    <path
       style="fill:none;fill-opacity:1;stroke:#000000;stroke-width:1.01199996;stroke-linecap:butt;stroke-linejoin:miter;stroke-miterlimit:4;stroke-dasharray:none;stroke-opacity:1"
       d="m 40.534079,240.66984 c 1.260504,0.59094 -8.035001,3.09032 -10.485978,8.49412 -3.253905,-4.21645 -5.52641,-16.0009 10.485978,-8.49412 z"
       id="path5680"
       inkscape:connector-curvature="0"
       sodipodi:nodetypes="scs" />
    <path
       style="fill:none;stroke:#000000;stroke-width:1.01199996;stroke-linecap:butt;stroke-linejoin:miter;stroke-miterlimit:4;stroke-dasharray:none;stroke-opacity:1"
       d="m 36.810698,243.95599 c -2.320372,-4.40837 -2.972535,-3.83506 -7.843626,-4.28708"
       id="path5682"
       inkscape:connector-curvature="0"
       sodipodi:nodetypes="cc" />
    <path
       style="fill:none;stroke:#000000;stroke-width:1.01199996;stroke-linecap:butt;stroke-linejoin:miter;stroke-miterlimit:4;stroke-dasharray:none;stroke-opacity:1"
       d="m 48.753048,244.25422 c 2.651712,1.19928 6.665362,4.00189 7.068134,7.30166 0.402776,3.29978 2.982681,-10.97313 -1.779927,-11.84505 -4.762609,-0.87192 -5.288207,4.54339 -5.288207,4.54339 z"
       id="path5684"
       inkscape:connector-curvature="0"
       sodipodi:nodetypes="cssc" />
    <path
       style="fill:none;stroke:#000000;stroke-width:1.01199996;stroke-linecap:butt;stroke-linejoin:miter;stroke-miterlimit:4;stroke-dasharray:none;stroke-opacity:1"
       d="m 62.80931,251.59263 c -0.537734,-5.8084 -5.167941,-12.84821 -10.270621,-11.90327"
       id="path5686"
       inkscape:connector-curvature="0"
       sodipodi:nodetypes="cc" />
    <path
       style="fill:none;stroke:#000000;stroke-width:1.01199996;stroke-linecap:butt;stroke-linejoin:miter;stroke-miterlimit:4;stroke-dasharray:none;stroke-opacity:1"
       d="m 66.859012,247.40225 c 3.302817,4.14611 5.523428,4.80757 3.019335,5.84701 -2.504091,1.03943 -4.677455,3.40178 -2.220609,4.6302 2.456844,1.22842 7.559522,2.97657 5.38616,3.92151 -2.173364,0.94494 -4.110492,3.07105 -4.110492,3.07105"
       id="path5688"
       inkscape:connector-curvature="0" />
    <path
       style="fill:none;stroke:#000000;stroke-width:1.01199996;stroke-linecap:butt;stroke-linejoin:miter;stroke-miterlimit:4;stroke-dasharray:none;stroke-opacity:1"
       d="m 42.04985,268.65178 c 0.09449,-12.42596 -17.812127,-7.74851 -15.922246,0.28349 1.889882,8.03199 15.780506,8.31547 15.922246,-0.28349 z"
       inkscape:connector-curvature="0"
       id="path5690" />
    <path
       style="fill:none;stroke:#000000;stroke-width:1.01199996;stroke-linecap:butt;stroke-linejoin:miter;stroke-miterlimit:4;stroke-dasharray:none;stroke-opacity:1"
       d="m 30.946801,266.19494 v 3.63802"
       id="path5692"
       inkscape:connector-curvature="0" />
    <path
       style="fill:none;stroke:#000000;stroke-width:1.01199996;stroke-linecap:butt;stroke-linejoin:miter;stroke-miterlimit:4;stroke-dasharray:none;stroke-opacity:1"
       d="m 33.498139,266.19494 c 0,0 0.188989,4.7247 0.708705,5.05543"
       id="path5694"
       inkscape:connector-curvature="0" />
    <path
       style="fill:none;stroke:#000000;stroke-width:1.01199996;stroke-linecap:butt;stroke-linejoin:miter;stroke-miterlimit:4;stroke-dasharray:none;stroke-opacity:1"
       d="m 45.782364,258.39918 c -1.08668,-3.77976 4.299479,-2.12611 3.212799,-0.42522 -1.086681,1.70089 -3.685268,0.42522 -3.732514,-0.51972 -0.04725,-0.94494 3.401785,-0.70871 2.882069,0.28348 -0.519719,0.99219 -1.937129,-0.23623 -1.795389,-0.99219"
       id="path5696"
       inkscape:connector-curvature="0" />
    <path
       style="fill:none;stroke:#000000;stroke-width:1.01199996;stroke-linecap:butt;stroke-linejoin:miter;stroke-miterlimit:4;stroke-dasharray:none;stroke-opacity:1"
       d="m 30.238094,259.15513 c -1.039434,-1.5119 -2.456844,-1.55915 -2.598584,0.33073 -0.141743,1.88988 2.50409,1.03944 1.889879,-0.47247 -0.614212,-1.5119 -2.220608,0.33073 -1.181174,0.85045 1.039434,0.51971 0.614211,-0.85045 0.614211,-0.85045"
       id="path5698"
       inkscape:connector-curvature="0" />
    <path
       style="fill:none;stroke:#000000;stroke-width:1.01199996;stroke-linecap:butt;stroke-linejoin:miter;stroke-miterlimit:4;stroke-dasharray:none;stroke-opacity:1"
       d="m 65.146946,281.69882 c 0.334086,1.1359 2.405427,2.47224 3.34087,1.87088 0.935442,-0.60135 3.741774,-1.53679 3.474503,-2.60587 -0.267269,-1.06908 -0.46772,-5.01131 -0.46772,-5.01131"
       id="path5700"
       inkscape:connector-curvature="0" />
    <path
       style="fill:none;stroke:#000000;stroke-width:1.01199996;stroke-linecap:butt;stroke-linejoin:miter;stroke-miterlimit:4;stroke-dasharray:none;stroke-opacity:1"
       d="m 49.979402,285.77468 c 0.334087,2.93996 2.071338,5.07812 4.81085,4.07586 2.739514,-1.00226 5.078121,-1.20271 4.810853,-2.60588 -0.267269,-1.40316 -0.534541,-3.60814 -0.534541,-3.60814"
       id="path5702"
       inkscape:connector-curvature="0" />
    <path
       style="fill:none;stroke:#000000;stroke-width:1.01199996;stroke-linecap:butt;stroke-linejoin:miter;stroke-miterlimit:4;stroke-dasharray:none;stroke-opacity:1"
       d="m 35.145943,283.70334 c -0.467723,2.13816 -0.734992,3.40769 1.269529,3.80859 2.004523,0.4009 4.944488,2.40543 5.545843,0.73499 0.601356,-1.67043 1.469983,-2.73951 1.469983,-2.73951"
       id="path5704"
       inkscape:connector-curvature="0" />
    <path
       style="fill:#fffffd;fill-opacity:1;stroke:#000000;stroke-width:1.01199996;stroke-linecap:butt;stroke-linejoin:miter;stroke-miterlimit:4;stroke-dasharray:none;stroke-opacity:1"
       d="m 43.030395,218.82366 c 1.469982,3.60814 2.004519,4.27632 0.267268,6.94901 -1.028547,2.95618 0.371709,7.94501 1.069078,8.68626 1.266172,1.34584 9.735586,2.9756 11.091685,-1.33635 0.494316,-1.57176 0.551938,-5.51978 -0.176874,-6.64656 -1.285986,-1.98821 -1.560377,-2.48073 -1.560377,-2.84151 0,-0.53454 20.593184,16.05239 22.584275,18.8425 2.46356,3.07361 13.918546,15.31621 18.174328,9.88898 6.287642,-8.01837 -12.132119,-17.16027 -20.592031,-22.59263 -0.668177,0.26727 -16.491616,-10.48198 -16.491616,-11.81833 0,-1.33634 -0.601357,-4.81085 -1.804071,-4.94448 -1.202711,-0.13364 0.267271,-13.69756 1.603618,-15.43482 1.336347,-1.73725 -2.405425,-2.67269 -3.741772,-0.8018 -1.336349,1.87088 -4.677217,5.87993 -4.677217,6.68173 0,0.80181 2.672694,-5.34539 3.207235,-6.01356 0.534537,-0.66817 -4.944486,1.06908 -5.345391,1.87089 -0.400904,0.80181 -4.142679,14.16528 -3.608138,19.51067 z"
       id="path5738"
       inkscape:connector-curvature="0"
       sodipodi:nodetypes="ccsssscacscccscsc"
       inkscape:label="hammer" />
    <path
       style="fill:none;stroke:#000000;stroke-width:1.01199996;stroke-linecap:butt;stroke-linejoin:miter;stroke-miterlimit:4;stroke-dasharray:none;stroke-opacity:1"
       d="m 26.793769,257.87842 c -0.367495,-2.37201 6.347653,-3.74177 6.046973,-5.24516"
       id="path2195"
       inkscape:connector-curvature="0" />
    <path
       style="fill:none;stroke:#000000;stroke-width:1.01199996;stroke-linecap:butt;stroke-linejoin:miter;stroke-miterlimit:4;stroke-dasharray:none;stroke-opacity:1"
       d="m 43.531525,253.26802 c 0.634764,-2.7061 9.488067,6.08038 10.390103,4.10927"
       id="path2197"
       inkscape:connector-curvature="0" />
    <path
       style="fill:#007cd8;stroke:#000000;stroke-width:1.012;stroke-linecap:butt;stroke-linejoin:miter;stroke-opacity:1;fill-opacity:1;stroke-miterlimit:4;stroke-dasharray:none"
       d="m 48.359081,262.05451 c -1.135896,3.35757 -1.45328,7.90115 1.102487,7.66729 2.555763,-0.23386 -1.102487,-7.66729 -1.102487,-7.66729 z"
       id="path2199"
       inkscape:connector-curvature="0" />
  </g>
</svg>
