<?xml version="1.0" encoding="UTF-8"?>
<svg width="4in" height="4in" version="1.1" viewBox="0 0 101.6 101.6" xmlns="http://www.w3.org/2000/svg" xmlns:cc="http://creativecommons.org/ns#" xmlns:dc="http://purl.org/dc/elements/1.1/" xmlns:rdf="http://www.w3.org/1999/02/22-rdf-syntax-ns#">
<metadata>
<rdf:RDF>
<cc:Work rdf:about="">
<dc:format>image/svg+xml</dc:format>
<dc:type rdf:resource="http://purl.org/dc/dcmitype/StillImage"/>
<dc:title/>
</cc:Work>
</rdf:RDF>
</metadata>
<g transform="translate(0 -195.4)">
<path d="m21.167 204.77c-7.1815 0.66146-18.737 2.3753-19.527 4.5895-0.78953 2.2141 0.15541 11.664 1.4783 12.23s30.805 16.914 35.152 16.536c4.3467-0.37798 61.705-10.016 61.894-12.001 0.18899-1.9844 1.5119-14.363 0.28348-14.836-1.2284-0.47247-41.766-10.772-41.766-10.772z" fill="#6400bf"/>
<path d="m4.6302 225.09c-0.37798 3.3073-0.28348 46.964 1.1339 47.719 1.4174 0.75595 30.805 23.151 32.789 21.734s56.98-15.025 56.98-16.725c0-1.7009 2.4568-48.286 1.5119-48.853-0.94494-0.56696-57.169 10.678-57.547 11.339-0.37798 0.66146-34.396-13.985-34.868-15.214z" fill="#8600bf"/>
<path d="m1.7373 208.73c0.53454-2.4722 57.129-8.8867 57.463-8.1517s41.36 9.889 41.627 10.758c0.26727 0.86862 0.53454 14.165 0 15.034-0.53454 0.86862-57.931 13.163-62.675 12.294-4.744-0.86863-36.883-14.833-37.15-17.64-0.26727-2.8063-1.1359-11.827 0.73499-12.294z" fill="none" stroke="#000" stroke-width="1.012"/>
<path d="m3.3409 209.27s34.45 10.758 34.183 12.963 1.0299 12.963-0.50686 12.628c-1.5368-0.33408-2.3769-12.235 1.9749-13.28 16.582-3.9822 60.299-9.6379 60.299-9.6379" fill="none" stroke="#000" stroke-width="1.012"/>
<path d="m3.4018 223.39s0.37798 48.853 1.7009 49.893c1.3229 1.0394 32.033 24.19 33.073 22.962 1.0394-1.2284 58.019-15.497 58.208-17.67 0.18899-2.1734 1.6064-51.499 1.6064-51.499" fill="none" stroke="#000" stroke-width="1.012"/>
<path d="m38.081 239.26 0.85045 52.161" fill="none" stroke="#000" stroke-width="1.012"/>
</g>
</svg>
