<?xml version="1.0" encoding="UTF-8" standalone="no"?>
<!-- Created with Inkscape (http://www.inkscape.org/) -->

<svg
   xmlns:dc="http://purl.org/dc/elements/1.1/"
   xmlns:cc="http://creativecommons.org/ns#"
   xmlns:rdf="http://www.w3.org/1999/02/22-rdf-syntax-ns#"
   xmlns:svg="http://www.w3.org/2000/svg"
   xmlns="http://www.w3.org/2000/svg"
   xmlns:sodipodi="http://sodipodi.sourceforge.net/DTD/sodipodi-0.dtd"
   xmlns:inkscape="http://www.inkscape.org/namespaces/inkscape"
   width="4in"
   height="4in"
   viewBox="0 0 101.6 101.6"
   version="1.1"
   id="svg8"
   inkscape:version="0.92.4 (5da689c313, 2019-01-14)"
   sodipodi:docname="goodcustomerservice.svg">
  <defs
     id="defs2" />
  <sodipodi:namedview
     id="base"
     pagecolor="#ffffff"
     bordercolor="#666666"
     borderopacity="1.0"
     inkscape:pageopacity="0.0"
     inkscape:pageshadow="2"
     inkscape:zoom="1.979899"
     inkscape:cx="87.115189"
     inkscape:cy="179.83487"
     inkscape:document-units="mm"
     inkscape:current-layer="layer1"
     showgrid="false"
     units="in"
     inkscape:object-nodes="false"
     inkscape:snap-nodes="false"
     inkscape:snap-others="false"
     inkscape:window-width="1920"
     inkscape:window-height="1056"
     inkscape:window-x="-8"
     inkscape:window-y="-8"
     inkscape:window-maximized="1" />
  <metadata
     id="metadata5">
    <rdf:RDF>
      <cc:Work
         rdf:about="">
        <dc:format>image/svg+xml</dc:format>
        <dc:type
           rdf:resource="http://purl.org/dc/dcmitype/StillImage" />
        <dc:title></dc:title>
      </cc:Work>
    </rdf:RDF>
  </metadata>
  <g
     inkscape:label="Layer 1"
     inkscape:groupmode="layer"
     id="layer1"
     transform="translate(0,-195.4)">
    <path
       style="fill:#ff5a5a;fill-opacity:1;stroke:#000000;stroke-width:1.01199996;stroke-linecap:butt;stroke-linejoin:miter;stroke-miterlimit:4;stroke-dasharray:none;stroke-opacity:1"
       d="M 8.6230387,249.69329 C 8.2918661,206.12962 98.491103,183.96429 93.258071,252.02044 88.929806,308.30999 8.9425209,291.71915 8.6230387,249.69329 Z"
       id="path2322"
       inkscape:connector-curvature="0"
       sodipodi:nodetypes="sss" />
    <path
       style="fill:#ffffff;fill-opacity:1;stroke:#000000;stroke-width:1.01199996;stroke-linecap:butt;stroke-linejoin:miter;stroke-miterlimit:4;stroke-dasharray:none;stroke-opacity:1"
       d="m 16.83798,248.49058 c -0.267269,-34.74504 64.946495,-50.78121 69.89098,-1.73725 4.944486,49.04395 -66.149207,41.02587 -69.89098,1.73725 z"
       id="path2324"
       inkscape:connector-curvature="0" />
    <path
       style="display:inline;fill:#ffffff;fill-opacity:1;stroke:#000000;stroke-width:1.01199996;stroke-linecap:butt;stroke-linejoin:miter;stroke-miterlimit:4;stroke-dasharray:none;stroke-opacity:1"
       d="m 84.864303,271.18045 c 5.707453,-9.58911 7.795295,-12.42541 7.066493,-12.20282 -0.547508,0.16722 -32.785613,-14.48874 -33.124519,-13.94579 -0.338906,0.54295 -5.016501,13.81476 -5.016501,13.81476 z"
       id="path2146"
       inkscape:connector-curvature="0"
       sodipodi:nodetypes="csccc" />
    <path
       style="fill:#ffffff;fill-opacity:1;stroke:#000000;stroke-width:1.01199996;stroke-linecap:butt;stroke-linejoin:miter;stroke-miterlimit:4;stroke-dasharray:none;stroke-opacity:1"
       d="m 59.127602,249.23124 c -3.91233,-3.01545 -12.957542,-12.55455 -9.29103,-21.52305 3.666512,-8.96851 10.301815,-13.45828 9.785831,-14.08215 -0.515985,-0.62387 -4.178063,-2.63808 -4.765347,-2.20488 -0.587281,0.4332 -13.507711,14.21866 -11.201706,26.91513 2.306003,12.69647 12.541478,15.73535 12.541478,15.73535 z"
       id="path2148"
       inkscape:connector-curvature="0"
       sodipodi:nodetypes="csscscc" />
    <path
       style="fill:#ffffff;fill-opacity:1;stroke:#000000;stroke-width:1.01199996;stroke-linecap:butt;stroke-linejoin:miter;stroke-miterlimit:4;stroke-dasharray:none;stroke-opacity:1"
       d="m 54.613754,209.54757 c 0.564922,-3.54176 5.525353,-12.03705 13.127681,-7.72834 1.471427,0.8339 -5.493306,3.61749 -6.983017,4.52842 -2.254099,1.37834 0.792022,5.36924 2.625745,5.7046 4.848353,0.88668 8.716536,-4.08646 9.860141,-1.71678 0.834553,1.72929 -4.99798,6.51976 -6.653286,6.97748 -2.931394,0.81059 -8.863309,-0.37043 -11.977264,-7.76538 z"
       id="path2150"
       inkscape:connector-curvature="0"
       sodipodi:nodetypes="csssssc" />
    <path
       style="fill:#ffffff;fill-opacity:1;stroke:#000000;stroke-width:1.01199996;stroke-linecap:butt;stroke-linejoin:miter;stroke-miterlimit:4;stroke-dasharray:none;stroke-opacity:1"
       d="m 65.242412,220.16706 c -2.853843,6.45777 -5.813469,10.69166 -4.521629,13.14281 1.291843,2.45114 33.7097,16.87633 34.838061,15.89057 1.128359,-0.98576 6.377766,-13.31215 6.366266,-14.4058 -0.0115,-1.09365 -36.782619,-18.43226 -36.682698,-14.62758 z"
       id="path2152"
       inkscape:connector-curvature="0"
       sodipodi:nodetypes="ccccc" />
    <path
       style="fill:#ffffff;fill-opacity:1;stroke:#000000;stroke-width:1.01199996;stroke-linecap:butt;stroke-linejoin:miter;stroke-miterlimit:4;stroke-dasharray:none;stroke-opacity:1"
       d="m 68.84801,216.06658 c 3.92487,1.41628 13.526697,5.74531 13.585569,7.64739 0.05887,1.90208 -4.237008,2.69409 -6.76572,1.71273 -2.52871,-0.98137 -8.897088,-2.29618 -9.15567,-3.27458 -0.25858,-0.97841 -0.01745,-5.99116 2.335821,-6.08554 z"
       id="path2154"
       inkscape:connector-curvature="0"
       sodipodi:nodetypes="ccssc" />
    <path
       style="fill:#ffffff;fill-opacity:1;stroke:#000000;stroke-width:1.01199996;stroke-linecap:butt;stroke-linejoin:miter;stroke-miterlimit:4;stroke-dasharray:none;stroke-opacity:1"
       d="m 89.425487,225.90829 c 6.475624,0.59267 14.803953,3.32361 13.919563,5.75668 -0.8844,2.43307 -2.69785,4.93927 -4.830741,4.50747 -2.132881,-0.43181 -10.700602,-8.10894 -10.899962,-8.73703 -0.199357,-0.62809 1.81114,-1.52712 1.81114,-1.52712 z"
       id="path2156"
       inkscape:connector-curvature="0"
       sodipodi:nodetypes="cscsc" />
    <path
       style="fill:none;stroke:#000000;stroke-width:1.01199996;stroke-linecap:butt;stroke-linejoin:miter;stroke-miterlimit:4;stroke-dasharray:none;stroke-opacity:1"
       d="m 73.095704,231.05968 c 1.525189,-4.57091 -4.557088,-8.0505 -7.249106,-3.3025 -2.692017,4.74798 6.126382,6.9627 7.249106,3.3025 z"
       id="path2158"
       inkscape:connector-curvature="0"
       sodipodi:nodetypes="csc" />
    <path
       style="fill:none;stroke:#000000;stroke-width:1.01199996;stroke-linecap:butt;stroke-linejoin:miter;stroke-miterlimit:4;stroke-dasharray:none;stroke-opacity:1"
       d="m 87.640115,237.78409 c 1.983477,-5.16007 11.335214,-2.80862 8.939653,3.06 -2.395557,5.86861 -10.322248,-0.60321 -8.939653,-3.06 z"
       id="path2160"
       inkscape:connector-curvature="0"
       sodipodi:nodetypes="csc" />
    <path
       style="fill:#ffffff;fill-opacity:1;stroke:#000000;stroke-width:1.01199996;stroke-linecap:butt;stroke-linejoin:miter;stroke-miterlimit:4;stroke-dasharray:none;stroke-opacity:1"
       d="m 74.670177,241.15678 c -1.269076,3.99136 -2.721091,8.39669 -3.22558,8.86647 -0.504492,0.46978 6.120744,4.28828 7.636092,3.77042 1.515349,-0.51787 3.876424,-9.66744 3.876424,-9.66744 z"
       id="path2162"
       inkscape:connector-curvature="0"
       sodipodi:nodetypes="ccscc" />
    <path
       style="fill:none;stroke:#000000;stroke-width:1.01199996;stroke-linecap:butt;stroke-linejoin:miter;stroke-miterlimit:4;stroke-dasharray:none;stroke-opacity:1"
       d="m 74.795192,243.785 c 4.151092,2.92304 6.744614,3.7723 8.471749,3.44699"
       id="path2164"
       inkscape:connector-curvature="0"
       sodipodi:nodetypes="cc" />
    <path
       style="fill:none;stroke:#000000;stroke-width:1.01199996;stroke-linecap:butt;stroke-linejoin:miter;stroke-miterlimit:4;stroke-dasharray:none;stroke-opacity:1"
       d="m 72.892629,248.09019 c 0.849031,1.6617 5.028973,5.19125 7.986494,4.32111"
       id="path2166"
       inkscape:connector-curvature="0"
       sodipodi:nodetypes="cc" />
    <path
       style="fill:none;stroke:#000000;stroke-width:1.01199996;stroke-linecap:butt;stroke-linejoin:miter;stroke-miterlimit:4;stroke-dasharray:none;stroke-opacity:1"
       d="m 51.977895,223.3106 c -1.049326,-0.7606 -4.441917,-1.36923 -3.912334,-3.01545"
       id="path2168"
       inkscape:connector-curvature="0"
       sodipodi:nodetypes="cc" />
    <path
       style="fill:none;stroke:#000000;stroke-width:1.01199996;stroke-linecap:butt;stroke-linejoin:miter;stroke-miterlimit:4;stroke-dasharray:none;stroke-opacity:1"
       d="m 49.031643,229.52961 c -1.650205,1.94268 -4.88097,-0.37572 -4.753851,-1.11123"
       id="path2170"
       inkscape:connector-curvature="0"
       sodipodi:nodetypes="cc" />
    <path
       style="fill:none;stroke:#000000;stroke-width:1.01199996;stroke-linecap:butt;stroke-linejoin:miter;stroke-miterlimit:4;stroke-dasharray:none;stroke-opacity:1"
       d="m 49.670538,236.14546 c -1.740735,2.5954 -6.779549,1.45719 -6.350111,0.26151"
       id="path2172"
       inkscape:connector-curvature="0"
       sodipodi:nodetypes="cc" />
    <path
       style="fill:none;stroke:#000000;stroke-width:1.01199996;stroke-linecap:butt;stroke-linejoin:miter;stroke-miterlimit:4;stroke-dasharray:none;stroke-opacity:1"
       d="m 64.066405,262.66258 c -0.868627,3.4745 -6.135737,18.03398 -6.135737,18.03398 0,0 6.882191,3.27405 7.550364,2.00452 0.668177,-1.26953 6.949009,-17.17207 6.949009,-17.17207"
       id="path2328"
       inkscape:connector-curvature="0"
       sodipodi:nodetypes="cccc" />
    <path
       style="fill:none;stroke:#000000;stroke-width:1.01199996;stroke-linecap:butt;stroke-linejoin:miter;stroke-miterlimit:4;stroke-dasharray:none;stroke-opacity:1"
       d="m 52.533322,242.65552 c -0.849257,2.59351 -5.254811,5.39673 -6.280921,2.5682"
       id="path2174"
       inkscape:connector-curvature="0"
       sodipodi:nodetypes="cc" />
    <path
       style="fill:#ff5a5a;fill-opacity:1;stroke:none;stroke-width:1.01199996;stroke-linecap:butt;stroke-linejoin:miter;stroke-miterlimit:4;stroke-dasharray:none;stroke-opacity:1"
       d="m 27.156109,222.92373 c 7.483546,7.88445 48.165117,55.52617 49.506475,54.64735 1.937704,-1.26953 3.807897,-4.19872 6.012868,-5.6019 2.153937,-1.37069 -47.948018,-52.25131 -49.418001,-52.11767 -1.336346,1.33635 -4.163638,1.13452 -6.101342,3.07222 z"
       id="path2326"
       inkscape:connector-curvature="0"
       sodipodi:nodetypes="csscc" />
    <path
       style="fill:none;stroke:#000000;stroke-width:1.01199996;stroke-linecap:butt;stroke-linejoin:miter;stroke-miterlimit:4;stroke-dasharray:none;stroke-opacity:1"
       d="m 82.398808,271.06138 c 0,0 -47.219457,-48.72981 -47.854221,-50.33342"
       id="path2330"
       inkscape:connector-curvature="0" />
    <path
       style="fill:none;stroke:#000000;stroke-width:1.01199996;stroke-linecap:butt;stroke-linejoin:miter;stroke-miterlimit:4;stroke-dasharray:none;stroke-opacity:1"
       d="m 28.664656,224.67018 c 0.567947,0.66818 45.985641,52.06085 45.985641,52.06085"
       id="path2332"
       inkscape:connector-curvature="0"
       sodipodi:nodetypes="cc" />
    <path
       style="fill:none;stroke:#000000;stroke-width:1.01199996;stroke-linecap:butt;stroke-linejoin:miter;stroke-miterlimit:4;stroke-dasharray:none;stroke-opacity:1"
       d="m 74.508555,234.16146 c 0.283482,1.55915 10.063616,5.90588 11.10305,4.15774"
       id="path2334"
       inkscape:connector-curvature="0"
       sodipodi:nodetypes="cc" />
    <path
       style="fill:#6553eb;fill-opacity:1;stroke:#000000;stroke-width:0.5;stroke-linecap:butt;stroke-linejoin:miter;stroke-miterlimit:4;stroke-dasharray:none;stroke-opacity:1"
       d="m 71.4375,234.3032 c -1.322917,1.74814 -0.377977,3.1183 0.566964,2.59858 0.944941,-0.51971 -0.566964,-2.59858 -0.566964,-2.59858 z"
       id="path2336"
       inkscape:connector-curvature="0"
       sodipodi:nodetypes="ccc" />
  </g>
</svg>
