<?xml version="1.0" encoding="UTF-8" standalone="no"?>
<!-- Created with Inkscape (http://www.inkscape.org/) -->

<svg
   xmlns:dc="http://purl.org/dc/elements/1.1/"
   xmlns:cc="http://creativecommons.org/ns#"
   xmlns:rdf="http://www.w3.org/1999/02/22-rdf-syntax-ns#"
   xmlns:svg="http://www.w3.org/2000/svg"
   xmlns="http://www.w3.org/2000/svg"
   xmlns:sodipodi="http://sodipodi.sourceforge.net/DTD/sodipodi-0.dtd"
   xmlns:inkscape="http://www.inkscape.org/namespaces/inkscape"
   width="4in"
   height="4in"
   viewBox="0 0 101.6 101.6"
   version="1.1"
   id="svg4882"
   inkscape:version="0.92.4 (5da689c313, 2019-01-14)"
   sodipodi:docname="goodprices.svg">
  <defs
     id="defs4876" />
  <sodipodi:namedview
     id="base"
     pagecolor="#ffffff"
     bordercolor="#666666"
     borderopacity="1.0"
     inkscape:pageopacity="0.0"
     inkscape:pageshadow="2"
     inkscape:zoom="1.979899"
     inkscape:cx="66.604367"
     inkscape:cy="175.897"
     inkscape:document-units="mm"
     inkscape:current-layer="layer1"
     showgrid="false"
     units="in"
     inkscape:snap-nodes="false"
     inkscape:snap-others="false"
     inkscape:window-width="1920"
     inkscape:window-height="1056"
     inkscape:window-x="-8"
     inkscape:window-y="-8"
     inkscape:window-maximized="1" />
  <metadata
     id="metadata4879">
    <rdf:RDF>
      <cc:Work
         rdf:about="">
        <dc:format>image/svg+xml</dc:format>
        <dc:type
           rdf:resource="http://purl.org/dc/dcmitype/StillImage" />
        <dc:title></dc:title>
      </cc:Work>
    </rdf:RDF>
  </metadata>
  <g
     inkscape:label="Layer 1"
     inkscape:groupmode="layer"
     id="layer1"
     transform="translate(0,-195.4)">
    <path
       style="fill:#f4ea50;fill-opacity:1;stroke:none;stroke-width:0.26458332px;stroke-linecap:butt;stroke-linejoin:miter;stroke-opacity:1"
       d="m 9.3544333,257.4441 c -4.5184065,-47.32261 77.8540247,-50.032 87.6644057,-6.949 15.386801,67.57223 -83.212177,53.57851 -87.6644057,6.949 z"
       id="path2312"
       inkscape:connector-curvature="0"
       sodipodi:nodetypes="sss" />
    <path
       style="fill:#da00e6;fill-opacity:1;stroke:none;stroke-width:0.26458332px;stroke-linecap:butt;stroke-linejoin:miter;stroke-opacity:1"
       d="m 25.949504,271.58896 c 0.06768,-6.90334 1.179918,-12.49309 2.208252,-16.76261 0.49375,-2.04999 2.510556,-3.69279 1.472693,-5.22452 -2.435087,-3.59382 -2.748989,-7.69732 7.228013,-4.73584 2.584132,0.76705 5.598156,-1.48187 9.349127,-1.60902 16.725445,-0.56696 32.222467,1.60639 30.332587,22.67856 -0.336134,3.74789 -0.509058,9.93551 -4.74278,14.96147 -0.850432,1.00957 1.12784,3.56249 0.594337,4.50742 -1.19559,2.1176 -2.453808,2.85833 -4.596076,2.44381 -1.276142,-0.24694 -1.798179,-2.05109 -2.201311,-1.80635 -2.048209,1.24345 -2.831744,1.84189 -5.852109,1.9268 -1.360808,0.0383 0.35332,4.16587 -0.849971,4.53298 -2.133189,0.65081 -4.053507,2.07067 -6.250579,1.10915 -1.831525,-0.80155 -2.057584,-4.68323 -2.661273,-4.55755 -1.975515,0.41127 -3.947298,0.7301 -5.870304,0.97215 -1.396895,0.17582 -1.551587,2.83764 -2.906013,2.88388 -2.59657,0.0887 -2.545884,-0.9555 -5.030074,-1.28857 -1.607205,-0.21549 0.129793,-3.90316 -1.173188,-4.31926 -12.40975,-3.96298 -9.051331,-15.7125 -9.051331,-15.7125 z"
       id="path2024"
       inkscape:connector-curvature="0"
       inkscape:label="fill"
       sodipodi:nodetypes="csssssssssssssssssc" />
    <path
       style="fill:none;fill-opacity:1;stroke:#000000;stroke-width:1.01199996;stroke-linecap:butt;stroke-linejoin:miter;stroke-miterlimit:4;stroke-dasharray:none;stroke-opacity:1"
       d="m 25.791509,271.47576 c -0.133635,-10.82442 0.09044,-33.54774 36.023252,-29.19445 8.94857,1.08413 13.813509,7.24588 14.824393,12.90286 2.707206,15.14974 -2.821367,27.30763 -12.409709,31.25873 -4.264177,1.75715 -37.502494,12.42798 -38.437936,-14.96714 z"
       id="path5678"
       inkscape:connector-curvature="0"
       sodipodi:nodetypes="csssc" />
    <path
       style="fill:none;fill-opacity:1;stroke:#000000;stroke-width:1.01199996;stroke-linecap:butt;stroke-linejoin:miter;stroke-miterlimit:4;stroke-dasharray:none;stroke-opacity:1"
       d="m 40.534079,244.94615 c 1.260504,0.59094 -8.035001,3.09032 -10.485978,8.49412 -3.253905,-4.21645 -5.52641,-16.0009 10.485978,-8.49412 z"
       id="path5680"
       inkscape:connector-curvature="0"
       sodipodi:nodetypes="scs" />
    <path
       style="fill:none;stroke:#000000;stroke-width:1.01199996;stroke-linecap:butt;stroke-linejoin:miter;stroke-miterlimit:4;stroke-dasharray:none;stroke-opacity:1"
       d="m 36.810698,248.2323 c -2.320372,-4.40837 -2.972535,-3.83506 -7.843626,-4.28708"
       id="path5682"
       inkscape:connector-curvature="0"
       sodipodi:nodetypes="cc" />
    <path
       style="fill:none;stroke:#000000;stroke-width:1.01199996;stroke-linecap:butt;stroke-linejoin:miter;stroke-miterlimit:4;stroke-dasharray:none;stroke-opacity:1"
       d="m 48.753048,248.53053 c 2.651712,1.19928 6.665362,4.00189 7.068134,7.30166 0.402776,3.29978 2.982681,-10.97313 -1.779927,-11.84505 -4.762609,-0.87192 -5.288207,4.54339 -5.288207,4.54339 z"
       id="path5684"
       inkscape:connector-curvature="0"
       sodipodi:nodetypes="cssc" />
    <path
       style="fill:none;stroke:#000000;stroke-width:1.01199996;stroke-linecap:butt;stroke-linejoin:miter;stroke-miterlimit:4;stroke-dasharray:none;stroke-opacity:1"
       d="m 62.80931,255.86894 c -0.537734,-5.8084 -5.167941,-12.84821 -10.270621,-11.90327"
       id="path5686"
       inkscape:connector-curvature="0"
       sodipodi:nodetypes="cc" />
    <path
       style="fill:none;stroke:#000000;stroke-width:1.01199996;stroke-linecap:butt;stroke-linejoin:miter;stroke-miterlimit:4;stroke-dasharray:none;stroke-opacity:1"
       d="m 69.461807,260.81942 c 0.812002,0.406 -0.826494,2.94011 0.205333,3.4119 2.090137,0.95567 4.831811,1.21333 3.376758,1.84596 -2.173364,0.94494 -4.110492,3.07105 -4.110492,3.07105"
       id="path5688"
       inkscape:connector-curvature="0"
       sodipodi:nodetypes="cssc" />
    <path
       style="fill:none;stroke:#000000;stroke-width:1.01199996;stroke-linecap:butt;stroke-linejoin:miter;stroke-miterlimit:4;stroke-dasharray:none;stroke-opacity:1"
       d="m 42.04985,272.92809 c 0.09449,-12.42596 -17.812127,-7.74851 -15.922246,0.28349 1.889882,8.03199 15.780506,8.31547 15.922246,-0.28349 z"
       inkscape:connector-curvature="0"
       id="path5690" />
    <path
       style="fill:none;stroke:#000000;stroke-width:1.01199996;stroke-linecap:butt;stroke-linejoin:miter;stroke-miterlimit:4;stroke-dasharray:none;stroke-opacity:1"
       d="m 30.946801,270.47125 v 3.63802"
       id="path5692"
       inkscape:connector-curvature="0" />
    <path
       style="fill:none;stroke:#000000;stroke-width:1.01199996;stroke-linecap:butt;stroke-linejoin:miter;stroke-miterlimit:4;stroke-dasharray:none;stroke-opacity:1"
       d="m 33.498139,270.47125 c 0,0 0.188989,4.7247 0.708705,5.05543"
       id="path5694"
       inkscape:connector-curvature="0" />
    <path
       style="fill:none;stroke:#000000;stroke-width:1.01199996;stroke-linecap:butt;stroke-linejoin:miter;stroke-miterlimit:4;stroke-dasharray:none;stroke-opacity:1"
       d="m 45.782364,262.67549 c -1.08668,-3.77976 4.299479,-2.12611 3.212799,-0.42522 -1.086681,1.70089 -3.685268,0.42522 -3.732514,-0.51972 -0.04725,-0.94494 3.401785,-0.70871 2.882069,0.28348 -0.519719,0.99219 -1.937129,-0.23623 -1.795389,-0.99219"
       id="path5696"
       inkscape:connector-curvature="0" />
    <path
       style="fill:none;stroke:#000000;stroke-width:1.01199996;stroke-linecap:butt;stroke-linejoin:miter;stroke-miterlimit:4;stroke-dasharray:none;stroke-opacity:1"
       d="m 30.238094,263.43144 c -1.039434,-1.5119 -2.456844,-1.55915 -2.598584,0.33073 -0.141743,1.88988 2.50409,1.03944 1.889879,-0.47247 -0.614212,-1.5119 -2.220608,0.33073 -1.181174,0.85045 1.039434,0.51971 0.614211,-0.85045 0.614211,-0.85045"
       id="path5698"
       inkscape:connector-curvature="0" />
    <path
       style="fill:none;stroke:#000000;stroke-width:1.01199996;stroke-linecap:butt;stroke-linejoin:miter;stroke-miterlimit:4;stroke-dasharray:none;stroke-opacity:1"
       d="m 65.146946,285.97513 c 0.334086,1.1359 2.405427,2.47224 3.34087,1.87088 0.935442,-0.60135 3.741774,-1.53679 3.474503,-2.60587 -0.267269,-1.06908 -0.46772,-5.01131 -0.46772,-5.01131"
       id="path5700"
       inkscape:connector-curvature="0" />
    <path
       style="fill:none;stroke:#000000;stroke-width:1.01199996;stroke-linecap:butt;stroke-linejoin:miter;stroke-miterlimit:4;stroke-dasharray:none;stroke-opacity:1"
       d="m 49.979402,290.05099 c 0.334087,2.93996 2.071338,5.07812 4.81085,4.07586 2.739514,-1.00226 5.078121,-1.20271 4.810853,-2.60588 -0.267269,-1.40316 -0.534541,-3.60814 -0.534541,-3.60814"
       id="path5702"
       inkscape:connector-curvature="0" />
    <path
       style="fill:none;stroke:#000000;stroke-width:1.01199996;stroke-linecap:butt;stroke-linejoin:miter;stroke-miterlimit:4;stroke-dasharray:none;stroke-opacity:1"
       d="m 35.145943,287.97965 c -0.467723,2.13816 -0.734992,3.40769 1.269529,3.80859 2.004523,0.4009 4.944488,2.40543 5.545843,0.73499 0.601356,-1.67043 1.469983,-2.73951 1.469983,-2.73951"
       id="path5704"
       inkscape:connector-curvature="0" />
    <path
       style="fill:#ffffff;fill-opacity:1;stroke:none;stroke-width:0.26458332px;stroke-linecap:butt;stroke-linejoin:miter;stroke-opacity:1"
       d="m 69.790754,197.10801 c -5.011304,0.63477 -24.722431,7.85105 -25.457423,7.65059 -0.734991,-0.20045 -4.34313,2.53906 -4.34313,3.97564 0,1.43657 -0.734988,7.81763 -1.302938,8.01808 -0.567946,0.20046 1.770661,10.42352 2.639288,12.02713 0.868624,1.60362 1.637025,6.54811 2.405425,7.2831 0.7684,0.73499 2.00452,4.34313 3.441094,-0.70159 1.436574,-5.04471 -0.167042,-0.0334 2.405428,-0.53454 2.572469,-0.50112 3.77518,-0.90203 6.013563,-5.21175 2.238383,-4.30972 2.739512,-5.21176 2.739512,-5.21176 0,0 6.147199,-3.107 6.447877,-3.80859 0.300678,-0.70158 7.984678,-7.95126 8.118314,-8.68626 0.133633,-0.73499 5.545841,-3.34087 5.545841,-3.60813 0,-0.26727 3.474505,-12.59508 -8.652851,-11.19192 z"
       id="path2316"
       inkscape:connector-curvature="0" />
    <path
       style="fill:#f4ea50;fill-opacity:1;stroke:none;stroke-width:0.26458332px;stroke-linecap:butt;stroke-linejoin:miter;stroke-opacity:1"
       d="m 48.640812,217.64862 c 0,0 0.779573,0.61421 0.803198,0.82683 0.02363,0.21261 1.41741,3.87425 1.582774,3.85063 0.165365,-0.0236 0.377976,0.3071 0.377976,0.3071 l -2.929313,6.77995 -0.59059,-1.34654 c 0,0 -0.09449,-6.96893 -0.188986,-7.29966 -0.0945,-0.33073 -0.519719,-1.51191 -0.519719,-1.51191 z"
       id="path2318"
       inkscape:connector-curvature="0" />
    <path
       style="fill:none;stroke:#000000;stroke-width:1.01199996;stroke-linecap:butt;stroke-linejoin:miter;stroke-miterlimit:4;stroke-dasharray:none;stroke-opacity:1"
       d="m 26.252824,261.36054 c 0.207379,-2.39134 4.984257,-11.0777 7.121219,-3.65593"
       id="path2195"
       inkscape:connector-curvature="0"
       sodipodi:nodetypes="cc" />
    <path
       style="fill:none;stroke:#000000;stroke-width:1.01199996;stroke-linecap:butt;stroke-linejoin:miter;stroke-miterlimit:4;stroke-dasharray:none;stroke-opacity:1"
       d="m 42.499529,257.82208 c 1.074058,-8.27449 11.413559,-1.81478 11.428917,0.36071"
       id="path2197"
       inkscape:connector-curvature="0"
       sodipodi:nodetypes="cc" />
    <path
       style="fill:none;stroke:#000000;stroke-width:0.83455706;stroke-linecap:butt;stroke-linejoin:miter;stroke-miterlimit:4;stroke-dasharray:none;stroke-opacity:1"
       d="m 69.589314,197.05681 c -3.506652,-0.38963 -16.676073,5.84441 -22.052938,6.77952 -5.376862,0.93511 -7.87048,3.0391 -7.636705,5.84442 0.233776,2.80532 -1.090958,6.85745 -1.480585,7.55878 -0.389627,0.70133 3.117022,14.3383 3.584576,14.57208 0.467554,0.23378 1.714362,6.93537 3.818353,5.84442 2.103991,-1.09096 2.818689,-13.87562 1.026403,-19.72004"
       id="path2294"
       inkscape:connector-curvature="0"
       sodipodi:nodetypes="csscccc" />
    <path
       style="fill:none;stroke:#000000;stroke-width:0.83455706;stroke-linecap:butt;stroke-linejoin:miter;stroke-miterlimit:4;stroke-dasharray:none;stroke-opacity:1"
       d="m 46.055791,205.94032 c -3.117021,1.40266 -3.50665,6.46783 -3.350798,7.55878 0.15585,1.09096 -1.639944,4.30384 -1.558514,8.02634 0.01023,0.46744 0.07793,8.49388 0.54548,9.74069"
       id="path2296"
       inkscape:connector-curvature="0"
       sodipodi:nodetypes="ccsc" />
    <path
       style="fill:none;stroke:#000000;stroke-width:0.83455706;stroke-linecap:butt;stroke-linejoin:miter;stroke-miterlimit:4;stroke-dasharray:none;stroke-opacity:1"
       d="m 45.85943,220.78882 c 1.106348,-1.0732 5.107732,-7.61477 7.49773,-8.99854 1.578231,-0.91377 3.686136,2.02052 2.049699,4.28037 -1.636437,2.25983 -8.338034,14.18245 -7.792555,16.52022 0.545478,2.33777 3.219114,3.73086 5.494898,0.5683 2.282667,-3.17212 5.10298,-8.20501 4.947128,-9.91937"
       id="path2298"
       inkscape:connector-curvature="0"
       sodipodi:nodetypes="cscssc" />
    <path
       style="fill:none;stroke:#000000;stroke-width:0.83455706;stroke-linecap:butt;stroke-linejoin:miter;stroke-miterlimit:4;stroke-dasharray:none;stroke-opacity:1"
       d="m 78.436636,208.25919 c -1.203456,1.05017 -5.371327,3.17374 -5.916806,3.95299 -0.545479,0.77926 -7.407777,8.4681 -9.476264,9.62496 -2.079896,1.16324 -5.214307,3.13714 -5.221014,3.11702"
       id="path2300"
       inkscape:connector-curvature="0"
       sodipodi:nodetypes="cssc" />
    <path
       style="fill:none;stroke:#000000;stroke-width:0.83455706;stroke-linecap:butt;stroke-linejoin:miter;stroke-miterlimit:4;stroke-dasharray:none;stroke-opacity:1"
       d="m 48.471484,217.39538 c 1.909178,0.74029 1.38318,5.06516 3.272874,4.90931"
       id="path2302"
       inkscape:connector-curvature="0"
       sodipodi:nodetypes="cc" />
    <path
       style="fill:none;stroke:#000000;stroke-width:0.83455706;stroke-linecap:butt;stroke-linejoin:miter;stroke-miterlimit:4;stroke-dasharray:none;stroke-opacity:1"
       d="m 50.887178,213.34325 c 2.259841,1.87021 1.324734,5.53271 2.649468,5.61064"
       id="path2304"
       inkscape:connector-curvature="0" />
    <path
       style="fill:none;stroke:#000000;stroke-width:0.83455706;stroke-linecap:butt;stroke-linejoin:miter;stroke-miterlimit:4;stroke-dasharray:none;stroke-opacity:1"
       d="m 50.185847,240.14965 c 0.155852,-9.50693 -6.701598,-3.6625 -5.143088,0.6234 1.558512,4.28591 4.675533,4.44176 5.143088,-0.6234 z"
       id="path2306"
       inkscape:connector-curvature="0" />
    <path
       style="fill:none;stroke:#000000;stroke-width:1.01199996;stroke-linecap:butt;stroke-linejoin:miter;stroke-miterlimit:4;stroke-dasharray:none;stroke-opacity:1"
       d="m 51.026784,243.0439 c -2.078868,0.7087 -7.74851,3.26004 -8.504462,4.11049"
       id="path2308"
       inkscape:connector-curvature="0" />
    <path
       style="fill:none;stroke:#000000;stroke-width:1.01199996;stroke-linecap:butt;stroke-linejoin:miter;stroke-miterlimit:4;stroke-dasharray:none;stroke-opacity:1"
       d="m 40.348958,282.40067 c 0.425222,3.1183 8.89292,0.91825 7.906466,-1.11772"
       id="path2310"
       inkscape:connector-curvature="0"
       sodipodi:nodetypes="cc" />
    <path
       style="fill:none;stroke:#000000;stroke-width:0.26458332px;stroke-linecap:butt;stroke-linejoin:miter;stroke-opacity:1"
       d="m 44.734236,237.76639 c -1.837478,-3.40769 -4.34313,-10.28988 -4.276312,-10.69078 0.06682,-0.40091 -2.238383,-8.95353 -2.138156,-9.35443 0.100227,-0.40091 2.071338,-7.61719 1.870887,-7.85105 -0.200454,-0.23386 -0.300678,-3.4745 2.338607,-4.30972 2.639288,-0.83521 25.156744,-8.25194 25.156744,-8.25194"
       inkscape:connector-curvature="0"
       id="path2314" />
  </g>
</svg>
