<?xml version="1.0" encoding="UTF-8" standalone="no"?>
<!-- Created with Inkscape (http://www.inkscape.org/) -->

<svg
   xmlns:dc="http://purl.org/dc/elements/1.1/"
   xmlns:cc="http://creativecommons.org/ns#"
   xmlns:rdf="http://www.w3.org/1999/02/22-rdf-syntax-ns#"
   xmlns:svg="http://www.w3.org/2000/svg"
   xmlns="http://www.w3.org/2000/svg"
   xmlns:sodipodi="http://sodipodi.sourceforge.net/DTD/sodipodi-0.dtd"
   xmlns:inkscape="http://www.inkscape.org/namespaces/inkscape"
   width="4in"
   height="4in"
   viewBox="0 0 101.6 101.6"
   version="1.1"
   id="svg8"
   inkscape:version="0.92.4 (5da689c313, 2019-01-14)"
   sodipodi:docname="inflexibletimelines.svg">
  <defs
     id="defs2" />
  <sodipodi:namedview
     id="base"
     pagecolor="#ffffff"
     bordercolor="#666666"
     borderopacity="1.0"
     inkscape:pageopacity="0.0"
     inkscape:pageshadow="2"
     inkscape:zoom="1.979899"
     inkscape:cx="52.842446"
     inkscape:cy="203.66309"
     inkscape:document-units="mm"
     inkscape:current-layer="layer1"
     showgrid="false"
     units="in"
     inkscape:snap-nodes="false"
     inkscape:snap-others="false"
     inkscape:window-width="1920"
     inkscape:window-height="1056"
     inkscape:window-x="-8"
     inkscape:window-y="-8"
     inkscape:window-maximized="1" />
  <metadata
     id="metadata5">
    <rdf:RDF>
      <cc:Work
         rdf:about="">
        <dc:format>image/svg+xml</dc:format>
        <dc:type
           rdf:resource="http://purl.org/dc/dcmitype/StillImage" />
        <dc:title></dc:title>
      </cc:Work>
    </rdf:RDF>
  </metadata>
  <g
     inkscape:label="Layer 1"
     inkscape:groupmode="layer"
     id="layer1"
     transform="translate(0,-195.39998)">
    <path
       style="fill:#a62de8;fill-opacity:1;stroke:none;stroke-width:0.26458332px;stroke-linecap:butt;stroke-linejoin:miter;stroke-opacity:1"
       d="m 7.3499119,284.30468 c -13.7432655,-17.08272 3.6081381,-73.49912 3.2072341,-70.15825 -0.400904,3.34086 5.345391,15.50163 5.345391,18.44159 0,2.93997 18.441596,-30.73599 22.45064,-32.47324 -4.276312,16.1698 -2.138157,27.52876 0.53454,29.80054 17.372519,-4.14267 36.615923,-27.26149 41.560411,-30.06781 -4.677218,13.76438 -11.22532,27.66239 -9.621704,31.13689 1.603618,3.47451 25.925144,-9.75533 25.657875,-11.49258 -0.267269,-1.73725 -15.367998,36.08138 -19.243405,36.34865 -3.875411,0.26727 18.575231,-1.60362 20.178847,-4.81085 1.603618,-3.20723 -12.893652,27.30033 -40.090428,33.40869 -24.989701,5.61266 -39.536391,12.84691 -49.9794011,-0.13363 z"
       id="path4864"
       inkscape:connector-curvature="0"
       sodipodi:nodetypes="ssscccssssss" />
    <path
       style="fill:#ffffff;fill-opacity:1;stroke:none;stroke-width:0.26458332px;stroke-linecap:butt;stroke-linejoin:miter;stroke-opacity:1"
       d="m 16.300223,256.27305 c -0.803199,3.827 -2.465578,9.62132 -1.086682,13.60713 4.099973,11.85131 34.256019,16.69164 37.419643,-0.37797 2.805546,-15.13757 -0.944941,-15.59152 -0.944941,-15.59152 z"
       id="path4866"
       inkscape:connector-curvature="0"
       sodipodi:nodetypes="csscc" />
    <path
       style="fill:#ffffff;fill-opacity:1;stroke:none;stroke-width:0.26458332px;stroke-linecap:butt;stroke-linejoin:miter;stroke-opacity:1"
       d="m 32.339613,232.32075 c 2.071338,-2.43883 7.750815,-3.90881 11.392363,-2.67269 3.641548,1.23612 9.187389,4.2429 9.621702,7.41673 0.434314,3.17382 0.334087,4.27631 0.133636,4.27631 -0.200454,0 -2.772921,-0.50113 -2.739514,-1.20271 0.03341,-0.70158 0.200453,-4.14268 -0.935443,-4.64381 -1.135896,-0.50113 -6.815371,-4.9779 -11.459179,-4.14268 -4.643811,0.83521 -3.541322,2.23838 -3.708367,2.20498 -0.167042,-0.0334 -2.305198,-1.23613 -2.305198,-1.23613 z"
       id="path4868"
       inkscape:connector-curvature="0"
       sodipodi:nodetypes="cssscsccc" />
    <path
       style="fill:#ffffff;fill-opacity:1;stroke:none;stroke-width:0.26458332px;stroke-linecap:butt;stroke-linejoin:miter;stroke-opacity:1"
       d="m 26.080357,233.45273 c -0.566964,-1.18117 1.842633,-5.90588 3.874257,-1.13393 2.031621,4.77195 -3.874257,1.13393 -3.874257,1.13393 z"
       id="path4870"
       inkscape:connector-curvature="0" />
    <path
       style="fill:#ffffff;fill-opacity:1;stroke:none;stroke-width:0.26458332px;stroke-linecap:butt;stroke-linejoin:miter;stroke-opacity:1"
       d="m 53.530878,241.81546 c 1.228423,-0.94495 5.291666,-1.79539 3.118302,2.59858 -2.173361,4.39397 -3.118302,-2.59858 -3.118302,-2.59858 z"
       id="path4872"
       inkscape:connector-curvature="0" />
    <g
       id="g4857"
       inkscape:label="paths"
       style="stroke-width:1.01199996;stroke-miterlimit:4;stroke-dasharray:none">
      <path
         inkscape:connector-curvature="0"
         id="path4801"
         d="m 51.382567,255.90729 c 2.672694,-19.9784 -33.007787,-23.11881 -35.012309,-3.60814 -2.004521,19.51068 30.134638,25.92514 35.012309,3.60814 z"
         style="display:inline;fill:#ffffff;fill-opacity:1;stroke:#000000;stroke-width:1.01199996;stroke-linecap:butt;stroke-linejoin:miter;stroke-miterlimit:4;stroke-dasharray:none;stroke-opacity:1" />
      <path
         sodipodi:nodetypes="cssc"
         inkscape:connector-curvature="0"
         id="path4803"
         d="m 16.303441,254.90503 c -0.06682,1.20271 -1.964005,9.0581 -1.937704,10.28988 0.400904,18.77568 36.176708,21.76751 39.088168,2.20497 1.428076,-9.59546 -1.870887,-14.76664 -1.870887,-14.76664"
         style="display:inline;fill:none;stroke:#000000;stroke-width:1.01199996;stroke-linecap:butt;stroke-linejoin:miter;stroke-miterlimit:4;stroke-dasharray:none;stroke-opacity:1" />
      <path
         style="fill:#ffffff;fill-opacity:1;stroke:none;stroke-width:0.26458332px;stroke-linecap:butt;stroke-linejoin:miter;stroke-opacity:1"
         d="m 79.646319,232.1203 c 0.601355,6.21402 -2.004523,16.9048 -1.937705,18.77569 0.06682,1.87088 -6.414469,16.63752 -5.813113,17.7066 0.601358,1.06908 7.349913,-0.20045 8.018086,-4.47676 0.668174,-4.27631 5.211758,-24.52198 5.14494,-25.45742 -0.06682,-0.93545 2.138156,-6.41447 -4.543584,-7.48355 -6.681737,-1.06908 -0.868624,0.93544 -0.868624,0.93544 z"
         id="path4874"
         inkscape:connector-curvature="0" />
      <path
         inkscape:connector-curvature="0"
         id="path4807"
         d="m 33.542324,254.57094 c 13.630746,-2.20497 14.232104,-1.20271 13.497113,-1.20271 -0.734992,0 -11.292139,4.54358 -18.708867,-0.66817 -7.41673,-5.21176 4.810852,3.20723 5.278572,3.00678 0.467722,-0.20045 -0.200451,-1.5368 -0.868624,-1.06908 -0.668174,0.46772 -2.605879,9.82215 -2.605879,9.82215"
         style="display:inline;fill:none;stroke:#000000;stroke-width:1.01199996;stroke-linecap:butt;stroke-linejoin:miter;stroke-miterlimit:4;stroke-dasharray:none;stroke-opacity:1" />
      <path
         inkscape:connector-curvature="0"
         id="path4809"
         d="m 77.909068,249.09192 c 0.935442,-8.95353 3.474502,-16.57071 1.670433,-18.24115 -1.80407,-1.67043 -9.087165,-3.0736 -10.156243,-1.87088 -1.069078,1.20271 -9.087162,33.27505 -7.884451,35.07912 1.202714,1.80407 9.421251,4.87767 9.822156,4.27631 0.400905,-0.60135 7.283096,-16.9048 6.548105,-19.2434 z"
         style="fill:#ffffff;fill-opacity:1;stroke:#000000;stroke-width:1.01199996;stroke-linecap:butt;stroke-linejoin:miter;stroke-miterlimit:4;stroke-dasharray:none;stroke-opacity:1"
         sodipodi:nodetypes="cccccc" />
      <path
         inkscape:connector-curvature="0"
         id="path4811"
         d="m 83.989449,244.54833 c 0.935442,-5.61266 1.804069,-11.09168 0.133633,-11.89349 -1.670434,-0.80181 -4.543581,-1.9377 -4.543581,-1.9377"
         style="fill:none;stroke:#000000;stroke-width:1.01199996;stroke-linecap:butt;stroke-linejoin:miter;stroke-miterlimit:4;stroke-dasharray:none;stroke-opacity:1" />
      <path
         inkscape:connector-curvature="0"
         id="path4813"
         d="m 80.648579,257.57772 c -0.601356,4.07587 0.133636,12.56167 -9.354434,10.82442"
         style="fill:none;stroke:#000000;stroke-width:1.01199996;stroke-linecap:butt;stroke-linejoin:miter;stroke-miterlimit:4;stroke-dasharray:none;stroke-opacity:1" />
      <path
         inkscape:connector-curvature="0"
         id="path4815"
         d="m 80.047223,256.77591 c -2.271792,-2.3386 -0.200453,-11.02486 2.539061,-11.42577 2.739512,-0.4009 34.745036,8.48581 34.745036,8.48581 0,0 -1.46998,15.10073 -2.27179,15.03391 -0.80181,-0.0668 -35.012307,-12.09395 -35.012307,-12.09395 z"
         style="fill:#ffffff;fill-opacity:1;stroke:#000000;stroke-width:1.01199996;stroke-linecap:butt;stroke-linejoin:miter;stroke-miterlimit:4;stroke-dasharray:none;stroke-opacity:1" />
      <path
         sodipodi:nodetypes="csc"
         inkscape:connector-curvature="0"
         id="path4817"
         d="m 20.980658,240.87338 c -1.603617,-8.15172 15.437751,-11.5006 15.835718,-3.54132 0.133636,2.6727 -15.835718,3.54132 -15.835718,3.54132 z"
         style="fill:#ffffff;fill-opacity:1;stroke:#000000;stroke-width:1.01199996;stroke-linecap:butt;stroke-linejoin:miter;stroke-miterlimit:4;stroke-dasharray:none;stroke-opacity:1" />
      <path
         sodipodi:nodetypes="csc"
         inkscape:connector-curvature="0"
         id="path4819"
         d="m 45.636272,241.20747 c 5.07812,-3.87541 15.853492,5.98083 11.425772,10.82441 -3.634666,3.97604 -10.22306,-9.75533 -11.425772,-10.82441 z"
         style="fill:#ffffff;fill-opacity:1;stroke:#000000;stroke-width:1.01199996;stroke-linecap:butt;stroke-linejoin:miter;stroke-miterlimit:4;stroke-dasharray:none;stroke-opacity:1" />
      <path
         inkscape:connector-curvature="0"
         id="path4821"
         d="m 26.259231,233.18938 c -1.937704,-2.80633 3.942226,-4.14268 3.407686,-0.4009"
         style="fill:none;stroke:#000000;stroke-width:1.01199996;stroke-linecap:butt;stroke-linejoin:miter;stroke-miterlimit:4;stroke-dasharray:none;stroke-opacity:1" />
      <path
         inkscape:connector-curvature="0"
         id="path4823"
         d="m 53.320269,242.14291 c 1.403165,-2.6727 6.280836,-1.67043 3.34087,2.47224"
         style="fill:none;stroke:#000000;stroke-width:1.01199996;stroke-linecap:butt;stroke-linejoin:miter;stroke-miterlimit:4;stroke-dasharray:none;stroke-opacity:1" />
      <path
         inkscape:connector-curvature="0"
         id="path4825"
         d="m 32.205977,232.52121 c 3.140416,-6.1472 23.118815,-3.60814 21.381564,9.02034"
         style="fill:none;stroke:#000000;stroke-width:1.01199996;stroke-linecap:butt;stroke-linejoin:miter;stroke-miterlimit:4;stroke-dasharray:none;stroke-opacity:1" />
      <path
         inkscape:connector-curvature="0"
         id="path4827"
         d="m 34.410951,233.6571 c 2.33861,-2.53906 2.939964,-2.43883 6.013564,-2.20497 3.184777,0.24232 9.195797,2.88979 10.089425,5.47903 0.458296,1.32788 0.200453,3.80858 0.200453,3.80858"
         style="fill:none;stroke:#000000;stroke-width:1.01199996;stroke-linecap:butt;stroke-linejoin:miter;stroke-miterlimit:4;stroke-dasharray:none;stroke-opacity:1"
         sodipodi:nodetypes="cssc" />
      <path
         inkscape:connector-curvature="0"
         id="path4829"
         d="m 51.983922,229.38079 c 0,0 3.207235,4.87767 3.608139,4.74403 0.400905,-0.13363 8.018087,-4.87767 8.018087,-4.87767 l -5.946749,-2.27179 z"
         style="fill:#ffffff;fill-opacity:1;stroke:#000000;stroke-width:1.01199996;stroke-linecap:butt;stroke-linejoin:miter;stroke-miterlimit:4;stroke-dasharray:none;stroke-opacity:1" />
      <path
         inkscape:connector-curvature="0"
         id="path4831"
         d="m 62.808339,224.10222 c 0,0 3.00678,1.06907 2.873147,2.27179 -0.133636,1.20271 2.204974,3.27405 2.204974,3.27405 l -0.734991,-5.47903 0.06682,-4.27631 z"
         style="fill:#ffffff;fill-opacity:1;stroke:#000000;stroke-width:1.01199996;stroke-linecap:butt;stroke-linejoin:miter;stroke-miterlimit:4;stroke-dasharray:none;stroke-opacity:1" />
      <path
         inkscape:connector-curvature="0"
         id="path4833"
         d="m 59.91572,237.82644 c 0,0 1.202711,4.81085 1.536798,4.6104 0.334087,-0.20045 3.140419,-3.94223 3.140419,-3.94223 z"
         style="fill:#ffffff;fill-opacity:1;stroke:#000000;stroke-width:1.01199996;stroke-linecap:butt;stroke-linejoin:miter;stroke-miterlimit:4;stroke-dasharray:none;stroke-opacity:1" />
      <path
         inkscape:connector-curvature="0"
         id="path4835"
         d="m 55.592061,270.74075 c -0.267269,0.13363 -2.00452,5.14494 -2.00452,5.14494 l 5.479023,0.86862 z"
         style="fill:#ffffff;fill-opacity:1;stroke:#000000;stroke-width:1.01199996;stroke-linecap:butt;stroke-linejoin:miter;stroke-miterlimit:4;stroke-dasharray:none;stroke-opacity:1" />
      <path
         inkscape:connector-curvature="0"
         id="path4837"
         d="m 65.303845,269.78631 -2.873147,3.54132 12.160763,2.13816 z"
         style="fill:#ffffff;fill-opacity:1;stroke:#000000;stroke-width:1.01199996;stroke-linecap:butt;stroke-linejoin:miter;stroke-miterlimit:4;stroke-dasharray:none;stroke-opacity:1" />
    </g>
  </g>
</svg>
