<?xml version="1.0" encoding="UTF-8"?>
<svg width="4in" height="4in" version="1.1" viewBox="0 0 101.6 101.6" xmlns="http://www.w3.org/2000/svg" xmlns:cc="http://creativecommons.org/ns#" xmlns:dc="http://purl.org/dc/elements/1.1/" xmlns:rdf="http://www.w3.org/1999/02/22-rdf-syntax-ns#">
<metadata>
<rdf:RDF>
<cc:Work rdf:about="">
<dc:format>image/svg+xml</dc:format>
<dc:type rdf:resource="http://purl.org/dc/dcmitype/StillImage"/>
<dc:title/>
</cc:Work>
</rdf:RDF>
</metadata>
<g transform="translate(0 -195.4)">
<path d="m7.1495 269.67c1.3363-2.2718 13.029-31.939 12.228-33.542s-1.2555 0.12674-3.2072-4.1427c-1.0691-2.3386-5.2786-1.4032-5.3454-1.7372-0.06682-0.33409 1.1359-5.8131 1.4032-5.8131s5.5817 3.2626 5.9467 1.5368c0.3675-1.7372 0.21719-5.1936 6.5147-5.8465 0.44941-0.0466 1.8845-9.9234 2.2719-10.279 1.1339-1.0419 4.1807-1.2434 6.1471 0.42381 1.5368 1.3029-1.4032 8.586-1.5368 9.321-0.13363 0.73499 4.577 4.9779 4.6104 7.517 0.01635 1.2428 4.0424 0.26729 7.7174 1.637 3.7508 1.398 10.39 0.66817 11.593 0.20045 1.2027-0.46772 1.7038-11.392 3.3075-13.464 1.4928-1.9283 4.7106-1.0022 4.7106-1.0022s-2.7395 18.508-2.8063 22.584c-0.06682 4.0759 0.97697 33.33 15.213 40.974 1.545 0.82954-17.853 0.31927-17.853-1.0839 0-1.4032-3.4077-24.255-0.53454-29.4 2.8731-5.1449-4.2095-12.562-4.744-12.762-0.53454-0.20046-15.101-3.274-17.239-2.7395-2.1382 0.53454-2.0045 5.2786-7.7508 4.5436-2.0045 0.60137-8.8199 32.807-11.76 34.812-3.2828 2.2383-8.8867-1.7372-8.8867-1.7372z" fill="#e8e8e9"/>
<path d="m41.01 275.36c0.66146-0.37798 9.8274-19.182 7.465-25.986-2.3624-6.8036-5.2917-3.4018-4.5357-8.221 0.75595-4.8192 5.2917-3.4963 5.3862-4.9609 0.09449-1.4647-1.2284-3.5908-0.8032-4.4885 0.42522-0.89769 4.205 2.8348 4.583 4.9609 0.37798 2.1261 4.205 1.1339 3.1655 10.253-1.0394 9.1187 1.2757 32.695 1.2757 32.695l-17.859-1.6064z" fill="#04f3f3"/>
<path d="m101.68 255.04c-1.6064-2.3624-9.9479-15.027-13.796-17.576-3.638-2.4096-0.61421-4.6302-7.2288-7.465-1.5521-0.6652-7.6183-1.6046-7.3915-0.61414 0.82975 3.6243 5.6267 12.015 6.4938 12.52 1.1339 0.66146 6.0476 4.2522 6.7091 5.9531 0.66146 1.7009 9.1659 23.435 15.308 24.568" fill="#04f3f3"/>
<path d="m39.645 276s8.7544-18.091 6.9987-26.278c-0.10558-0.49235-5.1824-3.345-4.1216-10.036 0.2629-1.6582 2.3151-1.6064 2.3151-1.6064s1.1339-1.8899 3.2128-2.4568c1.7009-0.56696-1.9371-4.5357-0.09449-5.2444 1.8426-0.4016 4.3231 4.2995 4.3231 4.2995s6.8744 4.583 4.6066 11.339c-2.0801 6.1969 0.62428 33.762 0.62428 33.762" fill="none" stroke="#000" stroke-width="1.012"/>
<path d="m101.44 272.86c-4.205-0.14174-12.099-17.76-14.94-23.121-2.4091-4.548-9.6761-9.6208-9.6761-9.6208" fill="none" stroke="#000" stroke-width="1.012"/>
<path d="m81.25 231.18c-2.0379-0.45102-3.558-0.71829-7.6506-2.8063-1.7707-0.13364-1.7206 4.575 4.5102 5.0447 1.0851 0.0818-0.08806-1.3057-0.33409-0.71828-0.64843 1.5481 0.51859 5.1383 4.3264 6.5147" display="none" fill="none" stroke="#000" stroke-width="1.012"/>
<path d="m78.147 236.05c0.23624 1.0867 0.4016 3.3073-0.14174 3.9215-0.54334 0.61421 1.1576 1.0158 1.1576 1.0158s-0.25986-2.0789 0.56696-2.7167" fill="none" stroke="#000" stroke-width="1.012"/>
<path d="m75.784 277.16c-20.222-16.158-14.836-47.342-12.379-60.193" fill="none" stroke="#000" stroke-width="1.012"/>
<path d="m57.358 216.73s-1.4647 11.198-1.8899 12.19c-0.42522 0.99219-19.371-1.1812-19.324-1.7954 0.04725-0.61421-1.5119-4.8664-3.9215-5.9059-2.4096-1.0394 1.9844-10.253 1.9844-10.253l-7.4178-1.4647s-2.1734 9.9691-2.7876 10.442c-0.61421 0.47247-4.9609-0.0472-5.7169 4.1577-0.75595 4.205-5.1499-1.0394-5.1499-1.0394l-2.4568 7.1343s4.8664 0.94494 5.0082 1.7009 0.14174 3.827 2.6931 4.205c2.5513 0.37797-8.9769 28.254-10.678 30.852-1.7009 2.5986 10.3 3.9688 10.3 3.9688s9.3077-32.411 10.253-33.026c0.94494-0.61421 5.3389-0.0945 6.6618-3.4963 1.3229-3.4018 13.418 0.8032 13.418 0.8032" fill="none" stroke="#000" stroke-width="1.012"/>
<path d="m101.73 253.57c-2.0713-3.0402-11.125-15.936-13.597-16.638-2.0379-2.6727-3.0736-7.4501-11.493-8.7197" fill="none" stroke="#000" stroke-width="1.012"/>
<path d="m23.246 227.26c0.85045-4.2995 6.0476-2.9293 5.2444 0.47247-0.8032 3.4018-5.7641 3.5908-5.2444-0.47247z" fill="none" stroke="#000" stroke-width="1.012"/>
<path d="m15.781 208.65c-1.0394 3.3073-11.906 53.767-16.158 57.358-4.2522 3.5908 59.371 14.271 77.584 12.229 2.3206-0.26021-1.3701-54.178-1.7048-60.043-0.2323-4.0708-59.72-9.5439-59.72-9.5439z" fill="none" stroke="#000" stroke-width="1.012"/>
<path d="m81.526 231.22s-3.7501-0.77014-5.1108-1.6435c-3.6631-2.351-6.1821-1.1885-1.4359 3.3388 0.61671 0.58827 3.6471 0.58341 2.9553 0.0503-0.70784-0.54543-0.6776 0.79883-0.49278 1.186 1.0738 2.2495-0.23386 2.7813 5.0781 5.0865" fill="none" stroke="#000" stroke-width="1.012"/>
</g>
</svg>
