<?xml version="1.0" encoding="UTF-8"?>
<svg width="4in" height="4in" version="1.1" viewBox="0 0 101.6 101.6" xmlns="http://www.w3.org/2000/svg" xmlns:cc="http://creativecommons.org/ns#" xmlns:dc="http://purl.org/dc/elements/1.1/" xmlns:rdf="http://www.w3.org/1999/02/22-rdf-syntax-ns#">
<metadata>
<rdf:RDF>
<cc:Work rdf:about="">
<dc:format>image/svg+xml</dc:format>
<dc:type rdf:resource="http://purl.org/dc/dcmitype/StillImage"/>
<dc:title/>
</cc:Work>
</rdf:RDF>
</metadata>
<g transform="translate(0 -195.4)">
<path d="m35.955 196.41c-2.4575 0.94277-3.8118 0.96742-6.7668 4.0696-2.9406 3.0871-2.2227 6.1744-4.7 11.199-2.2615 4.5865-4.1445 6.48-4.6057 11.924-0.56992 6.7264 7.2086 1.0604 7.8392 3.4035 0.63447 2.3575 2.6136 3.7118 4.0058 6.2934 6.1478 11.4 20.223 32.771 23.227 30.559 6.5999-4.8613-0.95998-9.1985 0.87375-11.035 1.383-1.3849 7.4577 10.628 12.987 8.2335 4.6223-2.0016-1.0487-6.2026-0.37992-6.6402 1.5717-1.0283 2.1277 1.9956 3.8076 0.97738 7.3937-4.4816-6.4988-15.213-5.245-15.15 1.1991 0.0602 4.185 6.4216 6.6116 3.3825 5.5178-6.9104-6.4579-10.678-8.2013-14.543-1.6646-3.6902 0.01985-11.491-0.89764-17.102-0.48631-2.9744-2.8633-5.7416-5.1209-7.5855-4.6541-3.8013-5.7711-6.4035-12.637-8.0658-6.1548-1.4902-8.4764-0.80952-10.798 0.0811z" fill="#31006d"/>
<path d="m28.698 200.92s-1.7029 3.3863-2.2384 6.8822c-1.1025 1.3698-2.5802 3.9948-4.1717 7.7117-0.66817 1.8709-4.7818 8.7922-1.3741 11.866 3.4077 3.0736 12.282-5.3482 13.597-14.399 0.25221-1.7353 1.2558-1.7267 1.6578-1.9797 1.622-1.0207 4.456-3.4659 4.456-3.4659" fill="none" stroke="#000" stroke-linecap="square" stroke-linejoin="bevel" stroke-width="1.016"/>
<path d="m27.125 225.87s3.9254 5.4625 6.1913 10.103c2.1855 4.4756 5.2377 8.9135 5.2377 8.9135s10.583 20.93 17.245 18.379-9.7801-27.356-9.7801-27.356 14.741 29.577 22.159 27.828c7.4178-1.7481-7.6068-22.301-13.276-26.931s11.528 20.836 18.568 18.285c7.0398-2.5513-12.095-19.796-12.095-19.796s10.158 13.087 14.836 8.599c4.6775-4.4885-11.009-14.883-11.009-14.883s0.29715-18.468-4.016-21.497c-4.9846-1.2757-6.7091 0.6142-6.7091 0.6142" fill="none" stroke="#000" stroke-linecap="square" stroke-linejoin="bevel" stroke-width="1.016"/>
<path d="m33.969 221.34s11.53-3.3364 14.601-7.6358 4.5357-8.9769 7.6068-9.0714" fill="none" stroke="#000" stroke-linecap="square" stroke-linejoin="bevel" stroke-width="1.016"/>
<path d="m64.681 216.63s-8.5045-0.8032-14.552 2.4096c-6.0476 3.2128-11.056 2.6931-13.843 1.7481" fill="none" stroke="#000" stroke-linecap="square" stroke-linejoin="bevel" stroke-width="1.016"/>
<path d="m43.845 228.49s2.1261-9.5439 19.749-4.3467" fill="none" stroke="#000" stroke-linecap="square" stroke-linejoin="bevel" stroke-width="1.016"/>
<path d="m36.569 233.45c0.51972-1.7954 6.8508-0.51972 8.8352 2.5513s0.7087 0.8032 0.99219-0.0473c0.28348-0.85044 3.9215-3.4018 6.4256-0.14174 2.5041 3.26 0.47247-0.0945 0.42522-0.33073-0.04725-0.23623 0.23624-6.0949 5.8586-3.26s1.7481 2.0316 0.94494 1.0867c-0.8032-0.94494-1.3229-5.4806 5.0082-4.4412" fill="none" stroke="#000" stroke-linecap="square" stroke-linejoin="bevel" stroke-width="1.016"/>
</g>
<g fill="none" stroke="#e8e8e9" stroke-width=".5">
<path d="m10.39 72.401-7.4501-2.4054s-3.6081-12.194-1.5702-12.929c2.1954-0.79179 22.15-1.8041 22.15-1.8041s3.9347 1.5794 2.8063 3.8754c1.9043 0.80181 3.748 0.37998 6.9156 0.66818 1.3444 0.12232 1.4152 7.0741-0.53454 7.5838-5.7234 1.4961-21.749 5.2452-21.749 5.2452"/>
<path d="m10.457 63.982 15.936-3.0402s6.055 1.0936 6.0136 1.4032c-0.03289 0.24578-20.647 3.7084-20.647 3.7084"/>
<path d="m19.394 62.645 3.3409 1.019"/>
<path d="m11.732 72.403c0.44546-0.54789 0.07372-3.7234 0.83612-3.8787 2.4816-0.50539 10.433-2.0036 10.433-2.0036s0.76947-2.4816 0.08352-2.205c-0.58069 0.2342 0.33409 2.1382 0.33409 2.1382s8.1985-1.9327 8.8148-1.763c0.55468 0.15276 0.30582 2.6316 0.30582 2.6316"/>
<path d="m9.7565 72.354c-0.23624 0.85044 0.92169 5.1879 1.252 0.23623-1.63-1.3229-1.9608-7.8194-1.9608-7.8194"/>
<path d="m11.292 66.826c-0.023623-1.2284-0.77958-3.7325-1.5119-3.827-0.73233-0.094493-6.6382-2.5041-8.1501-0.49609"/>
<path d="m2.5041 57.944 1.0158 2.6931"/>
<path d="m3.2364 70.346c-0.047247 0.73233 0.47247 3.4018 1.3938 0.44885"/>
<path d="m31.963 67.748s0.66146 2.764 1.3229 0.11812"/>
</g>
<g stroke="#e8e8e9" stroke-width=".5">
<path d="m89.604 55.652s0.16536 18.663-0.09449 18.781c-0.25986 0.11812-1.8899 0.49609-1.63-0.04725 0.25986-0.54334 3.2837-0.51972 3.3073-0.16536 0.02363 0.35435-0.92132 0.7087-1.7954 0.61421" fill="none"/>
<path d="m88.068 50.431c0.8032-0.23623 3.1655-0.33073 3.3073 0.04725 0.14174 0.37798 1.3702 4.4885 1.1339 4.6775-0.23624 0.18899-5.4807 0.85044-5.8586 0.14174-0.37798-0.7087 1.4174-4.8664 1.4174-4.8664z" fill="#e8e8e9"/>
</g>
<g fill="none" stroke="#e8e8e9" stroke-width=".5">
<path d="m27.83 67.603s11.384-0.39445 15.684-1.0838c0.0876-0.01404 1.2417-1.2265 0.95161-1.473-0.10729-0.09117-1.2551 0.84676-1.1902 1.5439 0.06425 0.69068 0.3331 6.3547 0.3331 6.3547"/>
<path d="m27.592 67.653s-0.23623 6.0004 0.11812 6.1185c0.35435 0.11812 15.568-0.09449 15.922-0.35435 0.35435-0.25986 1.3465-1.441 1.3465-1.8426 0-0.4016 0.02551-6.1889-0.29782-6.5351-0.59059-0.21261-12.483 0.60561-12.813 0.74736-0.33073 0.14174-4.2759 1.8663-4.2759 1.8663z"/>
<path d="m29.834 59.238c-0.01669-0.21716-0.18375-5.596-0.03341-5.6962 0.15034-0.10023 8.1016-1.3698 8.2686-1.3865 0.16704-0.0167 2.1883 0.51784 2.3887 0.58465 0.20045 0.06682 0.3675 13.096 0.05011 13.297-0.31738 0.20045-7.3165 2.3887-7.6005 2.4555"/>
<path d="m30.151 53.692s1.8375 0.05011 2.088 0.28397c0.25057 0.23386 0.60136 5.1449 0.35079 5.2285-0.25057 0.08352-0.66818-5.2619-0.26727-5.2452 0.4009 0.0167 7.4-1.0524 7.6172-1.0691"/>
</g>
</svg>
