<?xml version="1.0" encoding="UTF-8"?>
<svg width="4in" height="4in" version="1.1" viewBox="0 0 101.6 101.6" xmlns="http://www.w3.org/2000/svg" xmlns:cc="http://creativecommons.org/ns#" xmlns:dc="http://purl.org/dc/elements/1.1/" xmlns:rdf="http://www.w3.org/1999/02/22-rdf-syntax-ns#">
<metadata>
<rdf:RDF>
<cc:Work rdf:about="">
<dc:format>image/svg+xml</dc:format>
<dc:type rdf:resource="http://purl.org/dc/dcmitype/StillImage"/>
<dc:title/>
</cc:Work>
</rdf:RDF>
</metadata>
<g transform="translate(0 -195.4)">
<path d="m30.469 298.47c-1.0691-3.8754-14.945-21.071-18.884-24.155-8.2757-6.4798-3.7663-69.613 8.9955-47.673 9.7553 16.771 2.8063 27.596 14.032 39.088 11.225 11.493 20.179 24.99 16.437 33.409" fill="#8400bf"/>
<path d="m48.816 298.05s-6.2391-22.556 19.799-35.882c13.674-6.9981 8.8266-30.453 10.697-32.524s6.1472-16.771 11.292 0.86862c5.1449 17.64 3.8754 40.959-0.06681 43.364-3.9422 2.4054-23.354 16.755-20.396 27.226" fill="#6200bf"/>
<path d="m29.132 302.35c0.13364-7.7508-4.5072-16.937-14.967-24.722-14.215-10.581-4.1397-83.138 9.9497-43.609 2.1836 6.1262 1.7573 15.077 5.6021 21.417 2.9679 4.894 5.4095 8.5018 10.927 15.184 10.522 12.744 12.116 31.975 4.6582 42.822" fill="none" stroke="#000" stroke-width="1.012"/>
<path d="m71.343 297.38c-0.18899-5.1027 2.4568-10.583 9.5439-15.875 9.0306-6.7428 15.592-11.812 13.135-16.82 1.0394-6.2366-2.2679-62.839-14.93-35.435-1.5107 3.2694-1.6397 18.044-2.6594 20.558-3.3187 8.1812-2.5182 9.1884-13.594 16.295-9.6726 6.2065-14.458 14.93-13.229 18.899" fill="none" stroke="#000" stroke-width="1.012"/>
<path d="m75.028 272.15c1.6064-3.0238 23.563-30.794 12.19-28.726-6.2366 1.1339-16.914 17.954-18.615 18.993" fill="none" stroke="#000" stroke-width="1.012"/>
<path d="m25.135 278.86c-6.6146-4.4412-36.475-66.335 5.6696-15.308" fill="none" stroke="#000" stroke-width="1.012"/>
<path d="m17.765 223.2c0.09449 3.9688-1.4174 19.56-4.2522 21.828" fill="none" stroke="#000" stroke-width="1.012"/>
<path d="m21.545 227.83s-1.1339 19.466-3.0238 21.545" fill="none" stroke="#000" stroke-width="1.012"/>
<path d="m25.041 238.04c-0.47247 1.9844 0.56696 13.891-1.6064 15.403" fill="none" stroke="#000" stroke-width="1.012"/>
<path d="m79.942 226.98c-0.37798 2.7403 1.6064 19.938-1.5119 23.151" fill="none" stroke="#000" stroke-width="1.012"/>
</g>
</svg>
