<?xml version="1.0" encoding="UTF-8"?>
<svg width="4in" height="4in" version="1.1" viewBox="0 0 101.6 101.6" xmlns="http://www.w3.org/2000/svg" xmlns:cc="http://creativecommons.org/ns#" xmlns:dc="http://purl.org/dc/elements/1.1/" xmlns:rdf="http://www.w3.org/1999/02/22-rdf-syntax-ns#">
<metadata>
<rdf:RDF>
<cc:Work rdf:about="">
<dc:format>image/svg+xml</dc:format>
<dc:type rdf:resource="http://purl.org/dc/dcmitype/StillImage"/>
<dc:title/>
</cc:Work>
</rdf:RDF>
</metadata>
<g fill="none" stroke="#e8e8e9" stroke-width=".62569">
<path d="m9.6144 38.278c-1.0918 0.56852-1.5326 0.92878-2.2096 2.8271-0.70001 1.9626-1.2602 4.4335-5.1318 6.3939-2.1194 1.003-0.24446 6.9795 1.0732 6.4478 0.86567-0.40419 1.4165-0.75197 2.0234-1.059-1.6868-3.6427 3.7994-6.3925 5.7047-2.8184 0.53098-0.24094 14.562-7.1529 15.934-7.8106-1.5214-3.1763 3.8773-5.7686 5.4588-2.8426 0.846-0.40065 1.9198-0.90166 3.0661-1.4856 1.9922-0.97347 0.88322-2.3776 0.30141-2.3648-1.9017-0.95258-3.2963-7.2377-5.3353-7.6732 1.2912-0.64193-16.589 8.3544-20.885 10.385z"/>
<path d="m6.1474 53.263c-1.7777-3.6371 2.8733-5.6968 5.0208-2.4848 0.1245 0.18621 0.1795 0.87852 0.17795 1.0778-0.02255 2.8937-4.0848 4.41-5.1987 1.4071z"/>
<path d="m28.013 43.21c-2.1001-4.3798 2.9234-5.6771 4.4856-2.548 1.5622 3.129-2.9447 4.8948-4.4856 2.548z"/>
</g>
<g fill="none" stroke="#e8e8e9" stroke-width=".5">
<path d="m79.092 40.273c3.6853-0.51972 15.363 1.6606 14.599 4.9846-0.89096 3.8782-2.0659 8.8299-2.1225 11.697-0.02032 1.0283-2.4603 2.6266-0.02721-8.9799"/>
<path d="m89.344 42.069 2.4568-10.725s0.7087-2.2679-0.89769-2.5041-9.6384-1.8426-9.6384-1.8426-1.5592-0.96856-1.6064 1.63c-0.30711 3.827-3.1183 19.348-4.016 22.49-0.28348 0.44885 0.60148 2.1707 1.2284-0.02362 0.56696-1.9844 1.4647-6.9926 1.4647-6.9926"/>
<path d="m77.532 43.203s2.1734 1.7245 1.8899 2.8821c-0.51972 1.3702-1.5592 8.1737-1.7009 8.7879-0.14174 0.61421 0.18899 1.9371 0.99219-0.18899 0.8032-2.1261 1.7456-7.0183 2.2915-9.4966 0.28574-1.2973-1.4734 0.02772 0.14174 0.09449 2.1664 0.08956 12.048 2.2915 12.048 2.2915"/>
<path d="m87.101 46.279c-2.2799 9.5348-0.63882 10.27 1.0483 1.0156"/>
<path d="m78.525 26.902-4.7247 25.891 2.9766 4.205"/>
<path d="m74.603 53.03c3.851 0.67388 5.7567 1.0699 11.953 2.0789"/>
<path d="m77.58 28.107c2.0584-2.3663 0.23527-2.0068 1.3465 0.23624"/>
<path d="m85.436 54.058c2.1468 1.3588 1.6474 0.51895 0.03341 1.6036"/>
<path d="m75.43 56.197c1.8919 0.97986 1.6462 1.7871 1.186-0.61806"/>
<path d="m77.532 43.203s2.1734 1.7245 1.8899 2.8821c-0.51972 1.3702-1.5592 8.1737-1.7009 8.7879-0.14174 0.61421 0.18899 1.9371 0.99219-0.18899 0.8032-2.1261 1.7456-7.0183 2.2915-9.4966 0.28574-1.2973-1.4734 0.02772 0.14174 0.09449 2.1664 0.08956 12.048 2.2915 12.048 2.2915"/>
</g>
<g transform="translate(0 -195.4)">
<path d="m48.003 297.66-7.654-7.0871s-13.581-5.3757-7.9213-8.4234c3.9209-2.1113-7.513-7.7475-5.5198-11.393 2.097-3.8351 2.953-4.6601 2.6391-7.467-0.1939-1.7341-2.642-2.8282 0.82555-6.4742 1.5589-1.6391-3.0294-4.9813-1.9804-7.2598 0.98394-2.1374 6.3817-3.0171 6.3817-3.0171s0.28348 24.946 0.28348 26.647 2.1669 3.1965 3.8743 3.7798c0.72807 0.24871 18.089 2.0854 23.151-0.0945 6.0356-2.599 0.24723-12.367 8.5646-17.757 0.73092-0.47363-3.6593-2.7012-4.464-4.7088-0.93018-2.3207-2.3335-6.5335-0.02787-7.5005 5.0383-2.1131 10.781 6.1362 11.649 11.53 2.1829 13.558 0.10805 33.255-2.803 36.94-2.3491 2.9743-26.998 2.2841-26.998 2.2841z" fill="#2e006c"/>
<path d="m35.152 214.98c0.0945-2.3624 1.5119-5.1972 4.1577-5.1972 2.6458 0 23.624 1e-5 24.852 0.0945 1.2284 0.0945 3.7798 1.6064 3.3073 6.9926s-0.09449 52.917-0.18899 55.846c-0.09449 2.9293-0.28348 4.1577-5.3862 4.1577-5.1027 0-20.6 0.0945-23.435 0-2.8348-0.0945-3.4692-1.8182-3.4963-4.7247-0.02711-2.9065 0.18899-57.169 0.18899-57.169z" fill="none" stroke="#000" stroke-width="1.012"/>
<path d="m79.179 295.66s-1.7524-16.666-1.1359-24.188c0.66818-8.1517 0.93544-14.967 0.93544-14.967s-3.2295-2.6241-6.2335-5.8465c-2.2619-2.4265-1.7044-7.8705-6.1023-4.7875-4.2883 3.0062 1.3071 16.126 5.6934 13.559 1.4935-0.87396-3.1762 0.0887-4.1343 1.1509-4.5927 5.0918-7.2718 23.031-6.5343 23.147" fill="none" stroke="#000" stroke-width="1.012"/>
<path d="m48.242 298.2s-6.8154-5.0113-7.6172-6.7486" fill="none" stroke="#000" stroke-width="1.012"/>
<path d="m38.019 282.37c11.359 0.33409 13.846 16.293-3.8086 5.3454-10.614-6.5814 4.2095-8.0849 4.2095-8.0849" fill="none" stroke="#000" stroke-width="1.012"/>
<path d="m33.552 270.73c5.415-0.23236 5.4486 16.335-2.8797 7.4664-0.7543-0.80321-1.4979-1.8185-2.3236-2.9813-4.6302-6.5201 1.4647-9.6384 1.4647-9.6384" fill="none" stroke="#000" stroke-width="1.012"/>
<path d="m35.012 258.38c2.4722 2.8732 1.1064 15.686-6.3811 5.2118-5.3167-7.4374 5.2118-8.0181 6.047-7.9847 0.83522 0.0334 1.4067-0.79918 1.6036 0.0334 0.54872 2.3199-16.337-6.8488-1.8709-9.0538" fill="none" stroke="#000" stroke-width="1.012"/>
<path d="m49.044 277.42-3.3409 7.7508" fill="none" stroke="#000" stroke-width="1.012"/>
<path d="m53.387 277.76s-1.1359 12.963-4.744 15.034" fill="none" stroke="#000" stroke-width="1.012"/>
</g>
</svg>
