<?xml version="1.0" encoding="UTF-8"?>
<svg width="4in" height="4in" version="1.1" viewBox="0 0 101.6 101.6" xmlns="http://www.w3.org/2000/svg" xmlns:cc="http://creativecommons.org/ns#" xmlns:dc="http://purl.org/dc/elements/1.1/" xmlns:rdf="http://www.w3.org/1999/02/22-rdf-syntax-ns#">
<metadata>
<rdf:RDF>
<cc:Work rdf:about="">
<dc:format>image/svg+xml</dc:format>
<dc:type rdf:resource="http://purl.org/dc/dcmitype/StillImage"/>
<dc:title/>
</cc:Work>
</rdf:RDF>
</metadata>
<path d="m102.85 25.007c-7.1712 3.418-30.366 10.456-34.401 9.1287-4.1378-1.3613-16.612-13.717-24.734-9.0275-13.123 7.5777 1.8542 11.318 5.8958 4.6761 2.0714-3.404 17.12 16.703 18.777 20.22 3.862-0.69307 11.486-3.8312 34.23-2.326" fill="#f3c204"/>
<path d="m-1.6064 47.171c5.1027-0.75595 28.952-2.683 32.732-0.32066 3.7798 2.3624 17.161 23.85 18.295 12.983 1.1339-10.867-1.5119 3.0238 4.6302 2.8348 6.1421-0.18899 0.18899-9.4494 0.18899-9.4494s2.3624 9.0714 5.2917 7.7485c2.9293-1.3229 4.0632-8.599 0.85045-10.772-3.2128-2.1734 0.85044 9.3549 6.6146 7.0871 5.7641-2.2679-8.8352-23.671-16.206-24.143-7.3705-0.47247-6.2839 2.2206-10.442 0.89769-4.1577-1.3229-2.7277-4.5911-6.8036-5.4334-7.0871-1.4647-34.112-2.1261-38.648-1.1812" fill="#57406c"/>
<path d="m26.927 47.01c-2.2718 1.9377-3.5036 6.0696 3.7084 4.009 1.1693-0.33409-2.9066 7.8844 4.3097 2.8063 7.2163-5.0781 5.8131 0.4009 3.8086 3.8086-2.0045 3.4077 4.4434 5.0781 5.5124 2.1382 1.0691-2.94-4.3431-1.47-8.0849-0.40091-3.6309 1.0374-0.70158-6.0804-0.70158-6.0804s1.9377-5.3454-2.4054-4.0759c-7.089 2.0722 4.0425-3.4077-6.1472-2.205z" fill="#f3c204"/>
<path d="m26.226 47.411c-4.2763 4.5102 1.8709 5.7463 4.4099 2.8063 2.5391-2.94 7.8176-3.3075 4.8108 2.7061-3.0068 6.0136-7.7508 1.1693-4.4434-2.94" fill="none" stroke="#000" stroke-width="1.012"/>
<path d="m62.608 55.095c4.009-2.2718 9.5549-8.3522 24.322-7.4835 14.767 0.86862 30.201-2.3386 33.141-3.0068" fill="none" stroke="#000" stroke-width="1.012"/>
<path d="m41.814 28.178c3.3073 0.99219-0.47247 3.3545-2.5513 3.449" fill="none" stroke="#000" stroke-width="1.012"/>
<path d="m70.162 42.966c-0.18899-2.2206-5.5279-1.1339-6.1894 0.37798" fill="none" stroke="#000" stroke-width="1.012"/>
<path d="m65.957 37.25c0.51972 2.5513-1.7954 4.2522-3.1183 4.9137" fill="none" stroke="#000" stroke-width="1.012"/>
<path d="m104.1 24.225c-2.8063 2.94-30.582 9.5513-36.87 8.9792-4.0637-3.4004-7.8429-9.4608-24.201-8.1774-2.1312 0.16721-0.76032 3.1895-1.8781 4.0574-7.5462 5.8594 6.3124 7.6644 6.661-0.74862" fill="none" stroke="#000" stroke-width="1.012"/>
<path d="m53.72 38.525c1.9371-1.0394 5.2917 2.3151 4.7247 3.4963" fill="none" stroke="#000" stroke-width="1.012"/>
<path d="m49.137 44.289c1.1812 0.04725 2.9293 1.1812 3.4018 2.1734" fill="none" stroke="#000" stroke-width="1.012"/>
<path d="m-2.9946 48.237s30.158-3.3112 33.114-1.7345c2.1404 1.1418 6.0009 8.4407 11.511 12.972 2.099 1.726 3.8802 4.1676 7.0167 3.884 2.4846-0.22467 2.1495-7.0709 0.29691-6.4928-0.38162 0.11908 0.84855 3.4054 2.2524 4.7271 2.7717 2.6096 6.7852 2.9276 4.3625-6.3307-2.5579-9.7751-0.03341 4.8443 2.3052 5.3788 3.9755 0.90869 6.9824-1.7707 0.7684-11.994-2.2906-3.7684 0.56572-2.686 0.41859 0.71568-0.38437 8.8869 11.753 11.205 8.6352 2.7922-4.9779-13.43-13.798-19.912-18.442-21.382" fill="none" stroke="#000" stroke-width="1.012"/>
<path d="m-3.188 26.323c4.658-0.56089 31.041 1.1047 38.079 1.9801 5.5836 0.69452 18.145-6.2866 22.396 1.7" fill="none" stroke="#000" stroke-width="1.012"/>
<path d="m36.148 53.224c3.2616-3.5201 6.4039-2.0416 2.4054 4.9111 2.205 10.023 12.185-5.0376 0.33409 0.73499-8.2651 4.0259-4.1613-4.1116-2.7395-5.6461z" fill="none" stroke="#000" stroke-width="1.012"/>
<g fill="none" stroke="#e8e8e9" stroke-width=".5">
<path d="m81.194 71.565c1.5702-0.06682 1.6704 0.43431 1.7038 2.5057 0.03341 2.0713 0.23386 2.1047 1.1693 2.0379 3.1125 0.1146 16.574-0.5454 15.903-0.60136 0 0 0.70159-0.13364 0.80182 1.0691 0.10022 1.2027 0.92565 5.2118-0.71138 5.8131-1.637 0.60136-3.0891 0.67147-4.4002 0.86863-0.88238-4.6739-8.3555-4.2658-8.366 0.7259-7.1737 0.14248-14.605 0.34174-21.668 0.37658 0.39452-4.3791-7.3667-6.8939-8.5243-0.1198-0.2459 1.439-2.2208-6.9703 0.2389-7.3638 5.8432-0.93478 7.5838 0 8.9869-1.1359 1.4032-1.1359 4.9779-3.7418 6.6817-3.9088 1.7038-0.16704 8.1851-0.26727 8.1851-0.26727z"/>
<path d="m94.967 83.575c0-3.6144-6.7563-4.8664-6.7799 0.42522-0.02363 5.2917 7.465 2.8584 6.7799-0.42522z"/>
<path d="m85.99 84.662c0.09449 1.4174 2.0789 1.9135 2.5513 1.3702"/>
<path d="m65.91 84.638c-0.07087 1.1576-0.99219 1.2284-1.3465 1.2284"/>
<path d="m58.019 84.497c-0.59059-4.2759 6-6.1622 6.8744-0.37798 0.67126 4.4403-6.9453 3.638-6.8744 0.37798z"/>
</g>
</svg>
